M48
; DRILL file {KiCad 5.1.10-88a1d61d58~88~ubuntu20.04.1} date Tue Aug 10 20:43:06 2021
; FORMAT={-:-/ absolute / inch / decimal}
; #@! TF.CreationDate,2021-08-10T20:43:06+02:00
; #@! TF.GenerationSoftware,Kicad,Pcbnew,5.1.10-88a1d61d58~88~ubuntu20.04.1
; #@! TF.FileFunction,Plated,1,2,PTH
FMAT,2
INCH
T1C0.0157
T2C0.0300
T3C0.0354
T4C0.0394
T5C0.0787
%
G90
G05
T1
X5.1489Y-4.9179
X5.4589Y-4.4929
X5.5729Y-5.5269
X5.6019Y-5.7844
X5.6569Y-5.6259
X5.6569Y-5.7379
X5.728Y-6.2402
X5.7299Y-5.8099
X5.7654Y-6.2087
X5.7819Y-5.6769
X5.939Y-4.7189
X5.9394Y-4.8071
X5.9394Y-4.8969
X5.9498Y-6.1496
X6.0984Y-6.2598
X6.1657Y-5.0587
X6.1917Y-4.926
X6.2402Y-4.687
X6.2509Y-5.6249
X6.2519Y-5.5319
X6.2681Y-5.0622
X6.2988Y-4.8244
X6.3366Y-5.2047
X6.4437Y-4.824
X6.4437Y-5.0028
X6.5303Y-4.687
X6.5358Y-4.9004
X6.5579Y-4.9256
X6.6939Y-5.7169
X6.6945Y-5.9071
X6.6949Y-5.6249
X6.6959Y-5.5329
X6.7679Y-4.5399
X6.8559Y-5.7329
X6.9709Y-5.9039
T2
X5.1794Y-5.9419
X5.1794Y-6.5419
X5.2794Y-5.9419
X5.2794Y-6.5419
X5.3794Y-5.9419
X5.3794Y-6.5419
X5.4794Y-5.9419
X5.4794Y-6.5419
X5.5794Y-5.9419
X5.5794Y-6.5419
X5.6794Y-5.9419
X5.6794Y-6.5419
X5.7794Y-5.9419
X5.7794Y-6.5419
X5.8794Y-5.9419
X5.8794Y-6.5419
X5.9794Y-5.9419
X5.9794Y-6.5419
X6.0794Y-5.9419
X6.0794Y-6.5419
X6.1794Y-5.9419
X6.1794Y-6.5419
X6.2794Y-5.9419
X6.2794Y-6.5419
X6.3794Y-5.9419
X6.3794Y-6.5419
X6.4794Y-5.9419
X6.4794Y-6.5419
X6.5794Y-5.9419
X6.5794Y-6.5419
X7.3122Y-3.3083
X7.3122Y-3.4083
X7.3122Y-3.5083
X7.3122Y-3.6083
X7.3122Y-3.7083
X7.3122Y-3.8083
X7.3122Y-3.9083
X7.3122Y-4.0083
X7.3122Y-4.1083
X7.3122Y-4.2083
X7.3122Y-4.3083
X7.3122Y-4.4083
X7.3122Y-4.5083
X7.3122Y-4.6083
X7.3122Y-4.7083
X7.3122Y-4.8083
X7.3122Y-4.9083
X7.3122Y-5.0083
X7.3122Y-5.1083
X7.3122Y-5.2083
X7.3122Y-5.3083
X7.3122Y-5.4083
X7.3122Y-5.5083
X7.3122Y-5.6083
X7.3122Y-5.7083
X7.3122Y-5.8083
X7.3122Y-5.9083
X7.3122Y-6.0083
X7.3122Y-6.1083
X7.3122Y-6.2083
X7.3122Y-6.3083
X7.3122Y-6.4083
X7.4122Y-3.3083
X7.4122Y-3.4083
X7.4122Y-3.5083
X7.4122Y-3.6083
X7.4122Y-3.7083
X7.4122Y-3.8083
X7.4122Y-3.9083
X7.4122Y-4.0083
X7.4122Y-4.1083
X7.4122Y-4.2083
X7.4122Y-4.3083
X7.4122Y-4.4083
X7.4122Y-4.5083
X7.4122Y-4.6083
X7.4122Y-4.7083
X7.4122Y-4.8083
X7.4122Y-4.9083
X7.4122Y-5.0083
X7.4122Y-5.1083
X7.4122Y-5.2083
X7.4122Y-5.3083
X7.4122Y-5.4083
X7.4122Y-5.5083
X7.4122Y-5.6083
X7.4122Y-5.7083
X7.4122Y-5.8083
X7.4122Y-5.9083
X7.4122Y-6.0083
X7.4122Y-6.1083
X7.4122Y-6.2083
X7.4122Y-6.3083
X7.4122Y-6.4083
T3
X4.2236Y-2.378
X4.2236Y-2.478
X4.2236Y-3.0866
X4.2236Y-3.1866
X4.2236Y-3.7953
X4.2236Y-3.8953
X4.2236Y-4.5039
X4.2236Y-4.6039
X4.2236Y-5.2126
X4.2236Y-5.3126
X4.2236Y-5.9213
X4.2236Y-6.0213
X4.2236Y-6.6299
X4.2236Y-6.7299
X4.2236Y-7.3386
X4.2236Y-7.4386
T4
X6.5496Y-6.1425
X6.5496Y-6.2425
X6.5496Y-6.3425
X6.6496Y-6.1425
X6.6496Y-6.2425
X6.6496Y-6.3425
T5
X4.0236Y-2.178
X4.0236Y-2.578
X4.0236Y-2.8866
X4.0236Y-3.2866
X4.0236Y-3.5953
X4.0236Y-3.9953
X4.0236Y-4.3039
X4.0236Y-4.7039
X4.0236Y-5.0126
X4.0236Y-5.4126
X4.0236Y-5.7213
X4.0236Y-6.1213
X4.0236Y-6.4299
X4.0236Y-6.8299
X4.0236Y-7.1386
X4.0236Y-7.5386
T0
M30
