%TF.GenerationSoftware,KiCad,Pcbnew,5.1.12-84ad8e8a86~92~ubuntu20.04.1*%
%TF.CreationDate,2022-05-19T19:13:28+02:00*%
%TF.ProjectId,bkm-129x-simple,626b6d2d-3132-4397-982d-73696d706c65,rev?*%
%TF.SameCoordinates,Original*%
%TF.FileFunction,Soldermask,Top*%
%TF.FilePolarity,Negative*%
%FSLAX46Y46*%
G04 Gerber Fmt 4.6, Leading zero omitted, Abs format (unit mm)*
G04 Created by KiCad (PCBNEW 5.1.12-84ad8e8a86~92~ubuntu20.04.1) date 2022-05-19 19:13:28*
%MOMM*%
%LPD*%
G01*
G04 APERTURE LIST*
%ADD10C,1.524000*%
%ADD11R,2.500000X1.200000*%
%ADD12C,1.500000*%
%ADD13C,3.200000*%
%ADD14C,0.100000*%
%ADD15R,1.700000X1.700000*%
%ADD16O,1.700000X1.700000*%
%ADD17R,1.800000X0.800000*%
%ADD18R,1.560000X0.650000*%
%ADD19R,2.000000X3.800000*%
%ADD20R,2.000000X1.500000*%
%ADD21C,1.700000*%
G04 APERTURE END LIST*
D10*
%TO.C,U3*%
X167117100Y-150924000D03*
X164577100Y-150924000D03*
X162037100Y-150924000D03*
X159497100Y-150924000D03*
X156957100Y-150924000D03*
X154417100Y-150924000D03*
X151877100Y-150924000D03*
X149337100Y-150924000D03*
X146797100Y-150924000D03*
X144257100Y-150924000D03*
X141717100Y-150924000D03*
X139177100Y-150924000D03*
X136637100Y-150924000D03*
X134097100Y-150924000D03*
X131557100Y-150924000D03*
X131557100Y-166164000D03*
X134097100Y-166164000D03*
X136637100Y-166164000D03*
X139177100Y-166164000D03*
X141717100Y-166164000D03*
X144257100Y-166164000D03*
X146797100Y-166164000D03*
X149337100Y-166164000D03*
X151877100Y-166164000D03*
X154417100Y-166164000D03*
X156957100Y-166164000D03*
X159497100Y-166164000D03*
X162037100Y-166164000D03*
X164577100Y-166164000D03*
X167117100Y-166164000D03*
%TD*%
D11*
%TO.C,SW1*%
X116950000Y-78400000D03*
X122450000Y-78400000D03*
X122450000Y-80900000D03*
X116950000Y-80900000D03*
X116950000Y-75900000D03*
X122450000Y-75900000D03*
%TD*%
%TO.C,SW2*%
X116950000Y-114400000D03*
X122450000Y-114400000D03*
X122450000Y-116900000D03*
X116950000Y-116900000D03*
X116950000Y-111900000D03*
X122450000Y-111900000D03*
%TD*%
%TO.C,SW3*%
X116950000Y-150400000D03*
X122450000Y-150400000D03*
X122450000Y-152900000D03*
X116950000Y-152900000D03*
X116950000Y-147900000D03*
X122450000Y-147900000D03*
%TD*%
%TO.C,SW4*%
X116950000Y-186400000D03*
X122450000Y-186400000D03*
X122450000Y-188900000D03*
X116950000Y-188900000D03*
X116950000Y-183900000D03*
X122450000Y-183900000D03*
%TD*%
D12*
%TO.C,J41*%
X107280000Y-188940000D03*
D13*
X102200000Y-181320000D03*
X102200000Y-191480000D03*
D12*
X107280000Y-186400000D03*
%TD*%
%TO.C,J31*%
X107280000Y-152940000D03*
D13*
X102200000Y-145320000D03*
X102200000Y-155480000D03*
D12*
X107280000Y-150400000D03*
%TD*%
%TO.C,J21*%
X107280000Y-116940000D03*
D13*
X102200000Y-109320000D03*
X102200000Y-119480000D03*
D12*
X107280000Y-114400000D03*
%TD*%
%TO.C,J11*%
X107280000Y-80940000D03*
D13*
X102200000Y-73320000D03*
X102200000Y-83480000D03*
D12*
X107280000Y-78400000D03*
%TD*%
%TO.C,J4*%
X107280000Y-170940000D03*
D13*
X102200000Y-163320000D03*
X102200000Y-173480000D03*
D12*
X107280000Y-168400000D03*
%TD*%
%TO.C,J3*%
X107280000Y-134940000D03*
D13*
X102200000Y-127320000D03*
X102200000Y-137480000D03*
D12*
X107280000Y-132400000D03*
%TD*%
%TO.C,J2*%
X107280000Y-98940000D03*
D13*
X102200000Y-91320000D03*
X102200000Y-101480000D03*
D12*
X107280000Y-96400000D03*
%TD*%
%TO.C,J1*%
X107280000Y-62940000D03*
D13*
X102200000Y-55320000D03*
X102200000Y-65480000D03*
D12*
X107280000Y-60400000D03*
%TD*%
D14*
%TO.C,Y1*%
G36*
X154413173Y-152644670D02*
G01*
X153069670Y-153988173D01*
X152786827Y-153705330D01*
X154130330Y-152361827D01*
X154413173Y-152644670D01*
G37*
G36*
X153564645Y-151796142D02*
G01*
X152221142Y-153139645D01*
X151938299Y-152856802D01*
X153281802Y-151513299D01*
X153564645Y-151796142D01*
G37*
G36*
X155261701Y-153493198D02*
G01*
X153918198Y-154836701D01*
X153635355Y-154553858D01*
X154978858Y-153210355D01*
X155261701Y-153493198D01*
G37*
%TD*%
D15*
%TO.C,J6*%
X168900000Y-161100000D03*
D16*
X166360000Y-161100000D03*
X168900000Y-158560000D03*
X166360000Y-158560000D03*
X168900000Y-156020000D03*
X166360000Y-156020000D03*
%TD*%
%TO.C,C1*%
G36*
G01*
X127275000Y-119325000D02*
X126325000Y-119325000D01*
G75*
G02*
X126075000Y-119075000I0J250000D01*
G01*
X126075000Y-118400000D01*
G75*
G02*
X126325000Y-118150000I250000J0D01*
G01*
X127275000Y-118150000D01*
G75*
G02*
X127525000Y-118400000I0J-250000D01*
G01*
X127525000Y-119075000D01*
G75*
G02*
X127275000Y-119325000I-250000J0D01*
G01*
G37*
G36*
G01*
X127275000Y-117250000D02*
X126325000Y-117250000D01*
G75*
G02*
X126075000Y-117000000I0J250000D01*
G01*
X126075000Y-116325000D01*
G75*
G02*
X126325000Y-116075000I250000J0D01*
G01*
X127275000Y-116075000D01*
G75*
G02*
X127525000Y-116325000I0J-250000D01*
G01*
X127525000Y-117000000D01*
G75*
G02*
X127275000Y-117250000I-250000J0D01*
G01*
G37*
%TD*%
%TO.C,C2*%
G36*
G01*
X124317500Y-121048500D02*
X124317500Y-121998500D01*
G75*
G02*
X124067500Y-122248500I-250000J0D01*
G01*
X123392500Y-122248500D01*
G75*
G02*
X123142500Y-121998500I0J250000D01*
G01*
X123142500Y-121048500D01*
G75*
G02*
X123392500Y-120798500I250000J0D01*
G01*
X124067500Y-120798500D01*
G75*
G02*
X124317500Y-121048500I0J-250000D01*
G01*
G37*
G36*
G01*
X122242500Y-121048500D02*
X122242500Y-121998500D01*
G75*
G02*
X121992500Y-122248500I-250000J0D01*
G01*
X121317500Y-122248500D01*
G75*
G02*
X121067500Y-121998500I0J250000D01*
G01*
X121067500Y-121048500D01*
G75*
G02*
X121317500Y-120798500I250000J0D01*
G01*
X121992500Y-120798500D01*
G75*
G02*
X122242500Y-121048500I0J-250000D01*
G01*
G37*
%TD*%
%TO.C,C3*%
G36*
G01*
X124317500Y-124541000D02*
X124317500Y-125491000D01*
G75*
G02*
X124067500Y-125741000I-250000J0D01*
G01*
X123392500Y-125741000D01*
G75*
G02*
X123142500Y-125491000I0J250000D01*
G01*
X123142500Y-124541000D01*
G75*
G02*
X123392500Y-124291000I250000J0D01*
G01*
X124067500Y-124291000D01*
G75*
G02*
X124317500Y-124541000I0J-250000D01*
G01*
G37*
G36*
G01*
X122242500Y-124541000D02*
X122242500Y-125491000D01*
G75*
G02*
X121992500Y-125741000I-250000J0D01*
G01*
X121317500Y-125741000D01*
G75*
G02*
X121067500Y-125491000I0J250000D01*
G01*
X121067500Y-124541000D01*
G75*
G02*
X121317500Y-124291000I250000J0D01*
G01*
X121992500Y-124291000D01*
G75*
G02*
X122242500Y-124541000I0J-250000D01*
G01*
G37*
%TD*%
%TO.C,C4*%
G36*
G01*
X126325000Y-129450000D02*
X127275000Y-129450000D01*
G75*
G02*
X127525000Y-129700000I0J-250000D01*
G01*
X127525000Y-130375000D01*
G75*
G02*
X127275000Y-130625000I-250000J0D01*
G01*
X126325000Y-130625000D01*
G75*
G02*
X126075000Y-130375000I0J250000D01*
G01*
X126075000Y-129700000D01*
G75*
G02*
X126325000Y-129450000I250000J0D01*
G01*
G37*
G36*
G01*
X126325000Y-127375000D02*
X127275000Y-127375000D01*
G75*
G02*
X127525000Y-127625000I0J-250000D01*
G01*
X127525000Y-128300000D01*
G75*
G02*
X127275000Y-128550000I-250000J0D01*
G01*
X126325000Y-128550000D01*
G75*
G02*
X126075000Y-128300000I0J250000D01*
G01*
X126075000Y-127625000D01*
G75*
G02*
X126325000Y-127375000I250000J0D01*
G01*
G37*
%TD*%
%TO.C,C5*%
G36*
G01*
X134096500Y-128033500D02*
X134096500Y-128983500D01*
G75*
G02*
X133846500Y-129233500I-250000J0D01*
G01*
X133171500Y-129233500D01*
G75*
G02*
X132921500Y-128983500I0J250000D01*
G01*
X132921500Y-128033500D01*
G75*
G02*
X133171500Y-127783500I250000J0D01*
G01*
X133846500Y-127783500D01*
G75*
G02*
X134096500Y-128033500I0J-250000D01*
G01*
G37*
G36*
G01*
X132021500Y-128033500D02*
X132021500Y-128983500D01*
G75*
G02*
X131771500Y-129233500I-250000J0D01*
G01*
X131096500Y-129233500D01*
G75*
G02*
X130846500Y-128983500I0J250000D01*
G01*
X130846500Y-128033500D01*
G75*
G02*
X131096500Y-127783500I250000J0D01*
G01*
X131771500Y-127783500D01*
G75*
G02*
X132021500Y-128033500I0J-250000D01*
G01*
G37*
%TD*%
%TO.C,C6*%
G36*
G01*
X154346000Y-113644000D02*
X153396000Y-113644000D01*
G75*
G02*
X153146000Y-113394000I0J250000D01*
G01*
X153146000Y-112719000D01*
G75*
G02*
X153396000Y-112469000I250000J0D01*
G01*
X154346000Y-112469000D01*
G75*
G02*
X154596000Y-112719000I0J-250000D01*
G01*
X154596000Y-113394000D01*
G75*
G02*
X154346000Y-113644000I-250000J0D01*
G01*
G37*
G36*
G01*
X154346000Y-115719000D02*
X153396000Y-115719000D01*
G75*
G02*
X153146000Y-115469000I0J250000D01*
G01*
X153146000Y-114794000D01*
G75*
G02*
X153396000Y-114544000I250000J0D01*
G01*
X154346000Y-114544000D01*
G75*
G02*
X154596000Y-114794000I0J-250000D01*
G01*
X154596000Y-115469000D01*
G75*
G02*
X154346000Y-115719000I-250000J0D01*
G01*
G37*
%TD*%
%TO.C,C7*%
G36*
G01*
X159056500Y-113044000D02*
X157956500Y-113044000D01*
G75*
G02*
X157706500Y-112794000I0J250000D01*
G01*
X157706500Y-109794000D01*
G75*
G02*
X157956500Y-109544000I250000J0D01*
G01*
X159056500Y-109544000D01*
G75*
G02*
X159306500Y-109794000I0J-250000D01*
G01*
X159306500Y-112794000D01*
G75*
G02*
X159056500Y-113044000I-250000J0D01*
G01*
G37*
G36*
G01*
X159056500Y-118644000D02*
X157956500Y-118644000D01*
G75*
G02*
X157706500Y-118394000I0J250000D01*
G01*
X157706500Y-115394000D01*
G75*
G02*
X157956500Y-115144000I250000J0D01*
G01*
X159056500Y-115144000D01*
G75*
G02*
X159306500Y-115394000I0J-250000D01*
G01*
X159306500Y-118394000D01*
G75*
G02*
X159056500Y-118644000I-250000J0D01*
G01*
G37*
%TD*%
%TO.C,C8*%
G36*
G01*
X165322500Y-109544000D02*
X166422500Y-109544000D01*
G75*
G02*
X166672500Y-109794000I0J-250000D01*
G01*
X166672500Y-112794000D01*
G75*
G02*
X166422500Y-113044000I-250000J0D01*
G01*
X165322500Y-113044000D01*
G75*
G02*
X165072500Y-112794000I0J250000D01*
G01*
X165072500Y-109794000D01*
G75*
G02*
X165322500Y-109544000I250000J0D01*
G01*
G37*
G36*
G01*
X165322500Y-115144000D02*
X166422500Y-115144000D01*
G75*
G02*
X166672500Y-115394000I0J-250000D01*
G01*
X166672500Y-118394000D01*
G75*
G02*
X166422500Y-118644000I-250000J0D01*
G01*
X165322500Y-118644000D01*
G75*
G02*
X165072500Y-118394000I0J250000D01*
G01*
X165072500Y-115394000D01*
G75*
G02*
X165322500Y-115144000I250000J0D01*
G01*
G37*
%TD*%
%TO.C,C9*%
G36*
G01*
X171036000Y-115925000D02*
X170086000Y-115925000D01*
G75*
G02*
X169836000Y-115675000I0J250000D01*
G01*
X169836000Y-115000000D01*
G75*
G02*
X170086000Y-114750000I250000J0D01*
G01*
X171036000Y-114750000D01*
G75*
G02*
X171286000Y-115000000I0J-250000D01*
G01*
X171286000Y-115675000D01*
G75*
G02*
X171036000Y-115925000I-250000J0D01*
G01*
G37*
G36*
G01*
X171036000Y-113850000D02*
X170086000Y-113850000D01*
G75*
G02*
X169836000Y-113600000I0J250000D01*
G01*
X169836000Y-112925000D01*
G75*
G02*
X170086000Y-112675000I250000J0D01*
G01*
X171036000Y-112675000D01*
G75*
G02*
X171286000Y-112925000I0J-250000D01*
G01*
X171286000Y-113600000D01*
G75*
G02*
X171036000Y-113850000I-250000J0D01*
G01*
G37*
%TD*%
%TO.C,C10*%
G36*
G01*
X134034200Y-117693200D02*
X134034200Y-116743200D01*
G75*
G02*
X134284200Y-116493200I250000J0D01*
G01*
X134959200Y-116493200D01*
G75*
G02*
X135209200Y-116743200I0J-250000D01*
G01*
X135209200Y-117693200D01*
G75*
G02*
X134959200Y-117943200I-250000J0D01*
G01*
X134284200Y-117943200D01*
G75*
G02*
X134034200Y-117693200I0J250000D01*
G01*
G37*
G36*
G01*
X136109200Y-117693200D02*
X136109200Y-116743200D01*
G75*
G02*
X136359200Y-116493200I250000J0D01*
G01*
X137034200Y-116493200D01*
G75*
G02*
X137284200Y-116743200I0J-250000D01*
G01*
X137284200Y-117693200D01*
G75*
G02*
X137034200Y-117943200I-250000J0D01*
G01*
X136359200Y-117943200D01*
G75*
G02*
X136109200Y-117693200I0J250000D01*
G01*
G37*
%TD*%
%TO.C,C11*%
G36*
G01*
X135209200Y-110494800D02*
X135209200Y-111444800D01*
G75*
G02*
X134959200Y-111694800I-250000J0D01*
G01*
X134284200Y-111694800D01*
G75*
G02*
X134034200Y-111444800I0J250000D01*
G01*
X134034200Y-110494800D01*
G75*
G02*
X134284200Y-110244800I250000J0D01*
G01*
X134959200Y-110244800D01*
G75*
G02*
X135209200Y-110494800I0J-250000D01*
G01*
G37*
G36*
G01*
X137284200Y-110494800D02*
X137284200Y-111444800D01*
G75*
G02*
X137034200Y-111694800I-250000J0D01*
G01*
X136359200Y-111694800D01*
G75*
G02*
X136109200Y-111444800I0J250000D01*
G01*
X136109200Y-110494800D01*
G75*
G02*
X136359200Y-110244800I250000J0D01*
G01*
X137034200Y-110244800D01*
G75*
G02*
X137284200Y-110494800I0J-250000D01*
G01*
G37*
%TD*%
%TO.C,C12*%
G36*
G01*
X178527200Y-134939800D02*
X178527200Y-133989800D01*
G75*
G02*
X178777200Y-133739800I250000J0D01*
G01*
X179452200Y-133739800D01*
G75*
G02*
X179702200Y-133989800I0J-250000D01*
G01*
X179702200Y-134939800D01*
G75*
G02*
X179452200Y-135189800I-250000J0D01*
G01*
X178777200Y-135189800D01*
G75*
G02*
X178527200Y-134939800I0J250000D01*
G01*
G37*
G36*
G01*
X176452200Y-134939800D02*
X176452200Y-133989800D01*
G75*
G02*
X176702200Y-133739800I250000J0D01*
G01*
X177377200Y-133739800D01*
G75*
G02*
X177627200Y-133989800I0J-250000D01*
G01*
X177627200Y-134939800D01*
G75*
G02*
X177377200Y-135189800I-250000J0D01*
G01*
X176702200Y-135189800D01*
G75*
G02*
X176452200Y-134939800I0J250000D01*
G01*
G37*
%TD*%
%TO.C,C13*%
G36*
G01*
X173527200Y-139663000D02*
X173527200Y-138563000D01*
G75*
G02*
X173777200Y-138313000I250000J0D01*
G01*
X176777200Y-138313000D01*
G75*
G02*
X177027200Y-138563000I0J-250000D01*
G01*
X177027200Y-139663000D01*
G75*
G02*
X176777200Y-139913000I-250000J0D01*
G01*
X173777200Y-139913000D01*
G75*
G02*
X173527200Y-139663000I0J250000D01*
G01*
G37*
G36*
G01*
X179127200Y-139663000D02*
X179127200Y-138563000D01*
G75*
G02*
X179377200Y-138313000I250000J0D01*
G01*
X182377200Y-138313000D01*
G75*
G02*
X182627200Y-138563000I0J-250000D01*
G01*
X182627200Y-139663000D01*
G75*
G02*
X182377200Y-139913000I-250000J0D01*
G01*
X179377200Y-139913000D01*
G75*
G02*
X179127200Y-139663000I0J250000D01*
G01*
G37*
%TD*%
%TO.C,C15*%
G36*
G01*
X142375000Y-161000000D02*
X142375000Y-161950000D01*
G75*
G02*
X142125000Y-162200000I-250000J0D01*
G01*
X141450000Y-162200000D01*
G75*
G02*
X141200000Y-161950000I0J250000D01*
G01*
X141200000Y-161000000D01*
G75*
G02*
X141450000Y-160750000I250000J0D01*
G01*
X142125000Y-160750000D01*
G75*
G02*
X142375000Y-161000000I0J-250000D01*
G01*
G37*
G36*
G01*
X140300000Y-161000000D02*
X140300000Y-161950000D01*
G75*
G02*
X140050000Y-162200000I-250000J0D01*
G01*
X139375000Y-162200000D01*
G75*
G02*
X139125000Y-161950000I0J250000D01*
G01*
X139125000Y-161000000D01*
G75*
G02*
X139375000Y-160750000I250000J0D01*
G01*
X140050000Y-160750000D01*
G75*
G02*
X140300000Y-161000000I0J-250000D01*
G01*
G37*
%TD*%
%TO.C,C16*%
G36*
G01*
X158090000Y-155905000D02*
X158090000Y-154955000D01*
G75*
G02*
X158340000Y-154705000I250000J0D01*
G01*
X159015000Y-154705000D01*
G75*
G02*
X159265000Y-154955000I0J-250000D01*
G01*
X159265000Y-155905000D01*
G75*
G02*
X159015000Y-156155000I-250000J0D01*
G01*
X158340000Y-156155000D01*
G75*
G02*
X158090000Y-155905000I0J250000D01*
G01*
G37*
G36*
G01*
X156015000Y-155905000D02*
X156015000Y-154955000D01*
G75*
G02*
X156265000Y-154705000I250000J0D01*
G01*
X156940000Y-154705000D01*
G75*
G02*
X157190000Y-154955000I0J-250000D01*
G01*
X157190000Y-155905000D01*
G75*
G02*
X156940000Y-156155000I-250000J0D01*
G01*
X156265000Y-156155000D01*
G75*
G02*
X156015000Y-155905000I0J250000D01*
G01*
G37*
%TD*%
%TO.C,C17*%
G36*
G01*
X142425000Y-164125000D02*
X142425000Y-163175000D01*
G75*
G02*
X142675000Y-162925000I250000J0D01*
G01*
X143350000Y-162925000D01*
G75*
G02*
X143600000Y-163175000I0J-250000D01*
G01*
X143600000Y-164125000D01*
G75*
G02*
X143350000Y-164375000I-250000J0D01*
G01*
X142675000Y-164375000D01*
G75*
G02*
X142425000Y-164125000I0J250000D01*
G01*
G37*
G36*
G01*
X140350000Y-164125000D02*
X140350000Y-163175000D01*
G75*
G02*
X140600000Y-162925000I250000J0D01*
G01*
X141275000Y-162925000D01*
G75*
G02*
X141525000Y-163175000I0J-250000D01*
G01*
X141525000Y-164125000D01*
G75*
G02*
X141275000Y-164375000I-250000J0D01*
G01*
X140600000Y-164375000D01*
G75*
G02*
X140350000Y-164125000I0J250000D01*
G01*
G37*
%TD*%
%TO.C,C101*%
G36*
G01*
X140050500Y-116845500D02*
X141000500Y-116845500D01*
G75*
G02*
X141250500Y-117095500I0J-250000D01*
G01*
X141250500Y-117770500D01*
G75*
G02*
X141000500Y-118020500I-250000J0D01*
G01*
X140050500Y-118020500D01*
G75*
G02*
X139800500Y-117770500I0J250000D01*
G01*
X139800500Y-117095500D01*
G75*
G02*
X140050500Y-116845500I250000J0D01*
G01*
G37*
G36*
G01*
X140050500Y-114770500D02*
X141000500Y-114770500D01*
G75*
G02*
X141250500Y-115020500I0J-250000D01*
G01*
X141250500Y-115695500D01*
G75*
G02*
X141000500Y-115945500I-250000J0D01*
G01*
X140050500Y-115945500D01*
G75*
G02*
X139800500Y-115695500I0J250000D01*
G01*
X139800500Y-115020500D01*
G75*
G02*
X140050500Y-114770500I250000J0D01*
G01*
G37*
%TD*%
%TO.C,C102*%
G36*
G01*
X148531000Y-111282500D02*
X148531000Y-110332500D01*
G75*
G02*
X148781000Y-110082500I250000J0D01*
G01*
X149456000Y-110082500D01*
G75*
G02*
X149706000Y-110332500I0J-250000D01*
G01*
X149706000Y-111282500D01*
G75*
G02*
X149456000Y-111532500I-250000J0D01*
G01*
X148781000Y-111532500D01*
G75*
G02*
X148531000Y-111282500I0J250000D01*
G01*
G37*
G36*
G01*
X150606000Y-111282500D02*
X150606000Y-110332500D01*
G75*
G02*
X150856000Y-110082500I250000J0D01*
G01*
X151531000Y-110082500D01*
G75*
G02*
X151781000Y-110332500I0J-250000D01*
G01*
X151781000Y-111282500D01*
G75*
G02*
X151531000Y-111532500I-250000J0D01*
G01*
X150856000Y-111532500D01*
G75*
G02*
X150606000Y-111282500I0J250000D01*
G01*
G37*
%TD*%
D17*
%TO.C,Q1*%
X177974600Y-163177000D03*
X177974600Y-161277000D03*
X174674600Y-162227000D03*
%TD*%
%TO.C,R1*%
G36*
G01*
X159480000Y-131759999D02*
X159480000Y-132660001D01*
G75*
G02*
X159230001Y-132910000I-249999J0D01*
G01*
X158529999Y-132910000D01*
G75*
G02*
X158280000Y-132660001I0J249999D01*
G01*
X158280000Y-131759999D01*
G75*
G02*
X158529999Y-131510000I249999J0D01*
G01*
X159230001Y-131510000D01*
G75*
G02*
X159480000Y-131759999I0J-249999D01*
G01*
G37*
G36*
G01*
X157480000Y-131759999D02*
X157480000Y-132660001D01*
G75*
G02*
X157230001Y-132910000I-249999J0D01*
G01*
X156529999Y-132910000D01*
G75*
G02*
X156280000Y-132660001I0J249999D01*
G01*
X156280000Y-131759999D01*
G75*
G02*
X156529999Y-131510000I249999J0D01*
G01*
X157230001Y-131510000D01*
G75*
G02*
X157480000Y-131759999I0J-249999D01*
G01*
G37*
%TD*%
%TO.C,R6*%
G36*
G01*
X142847200Y-119409799D02*
X142847200Y-120309801D01*
G75*
G02*
X142597201Y-120559800I-249999J0D01*
G01*
X141897199Y-120559800D01*
G75*
G02*
X141647200Y-120309801I0J249999D01*
G01*
X141647200Y-119409799D01*
G75*
G02*
X141897199Y-119159800I249999J0D01*
G01*
X142597201Y-119159800D01*
G75*
G02*
X142847200Y-119409799I0J-249999D01*
G01*
G37*
G36*
G01*
X140847200Y-119409799D02*
X140847200Y-120309801D01*
G75*
G02*
X140597201Y-120559800I-249999J0D01*
G01*
X139897199Y-120559800D01*
G75*
G02*
X139647200Y-120309801I0J249999D01*
G01*
X139647200Y-119409799D01*
G75*
G02*
X139897199Y-119159800I249999J0D01*
G01*
X140597201Y-119159800D01*
G75*
G02*
X140847200Y-119409799I0J-249999D01*
G01*
G37*
%TD*%
%TO.C,R7*%
G36*
G01*
X140850000Y-121669999D02*
X140850000Y-122570001D01*
G75*
G02*
X140600001Y-122820000I-249999J0D01*
G01*
X139899999Y-122820000D01*
G75*
G02*
X139650000Y-122570001I0J249999D01*
G01*
X139650000Y-121669999D01*
G75*
G02*
X139899999Y-121420000I249999J0D01*
G01*
X140600001Y-121420000D01*
G75*
G02*
X140850000Y-121669999I0J-249999D01*
G01*
G37*
G36*
G01*
X142850000Y-121669999D02*
X142850000Y-122570001D01*
G75*
G02*
X142600001Y-122820000I-249999J0D01*
G01*
X141899999Y-122820000D01*
G75*
G02*
X141650000Y-122570001I0J249999D01*
G01*
X141650000Y-121669999D01*
G75*
G02*
X141899999Y-121420000I249999J0D01*
G01*
X142600001Y-121420000D01*
G75*
G02*
X142850000Y-121669999I0J-249999D01*
G01*
G37*
%TD*%
%TO.C,R8*%
G36*
G01*
X142847200Y-123930999D02*
X142847200Y-124831001D01*
G75*
G02*
X142597201Y-125081000I-249999J0D01*
G01*
X141897199Y-125081000D01*
G75*
G02*
X141647200Y-124831001I0J249999D01*
G01*
X141647200Y-123930999D01*
G75*
G02*
X141897199Y-123681000I249999J0D01*
G01*
X142597201Y-123681000D01*
G75*
G02*
X142847200Y-123930999I0J-249999D01*
G01*
G37*
G36*
G01*
X140847200Y-123930999D02*
X140847200Y-124831001D01*
G75*
G02*
X140597201Y-125081000I-249999J0D01*
G01*
X139897199Y-125081000D01*
G75*
G02*
X139647200Y-124831001I0J249999D01*
G01*
X139647200Y-123930999D01*
G75*
G02*
X139897199Y-123681000I249999J0D01*
G01*
X140597201Y-123681000D01*
G75*
G02*
X140847200Y-123930999I0J-249999D01*
G01*
G37*
%TD*%
%TO.C,R9*%
G36*
G01*
X140847200Y-126191599D02*
X140847200Y-127091601D01*
G75*
G02*
X140597201Y-127341600I-249999J0D01*
G01*
X139897199Y-127341600D01*
G75*
G02*
X139647200Y-127091601I0J249999D01*
G01*
X139647200Y-126191599D01*
G75*
G02*
X139897199Y-125941600I249999J0D01*
G01*
X140597201Y-125941600D01*
G75*
G02*
X140847200Y-126191599I0J-249999D01*
G01*
G37*
G36*
G01*
X142847200Y-126191599D02*
X142847200Y-127091601D01*
G75*
G02*
X142597201Y-127341600I-249999J0D01*
G01*
X141897199Y-127341600D01*
G75*
G02*
X141647200Y-127091601I0J249999D01*
G01*
X141647200Y-126191599D01*
G75*
G02*
X141897199Y-125941600I249999J0D01*
G01*
X142597201Y-125941600D01*
G75*
G02*
X142847200Y-126191599I0J-249999D01*
G01*
G37*
%TD*%
%TO.C,R10*%
G36*
G01*
X118100000Y-179850001D02*
X118100000Y-178949999D01*
G75*
G02*
X118349999Y-178700000I249999J0D01*
G01*
X119050001Y-178700000D01*
G75*
G02*
X119300000Y-178949999I0J-249999D01*
G01*
X119300000Y-179850001D01*
G75*
G02*
X119050001Y-180100000I-249999J0D01*
G01*
X118349999Y-180100000D01*
G75*
G02*
X118100000Y-179850001I0J249999D01*
G01*
G37*
G36*
G01*
X120100000Y-179850001D02*
X120100000Y-178949999D01*
G75*
G02*
X120349999Y-178700000I249999J0D01*
G01*
X121050001Y-178700000D01*
G75*
G02*
X121300000Y-178949999I0J-249999D01*
G01*
X121300000Y-179850001D01*
G75*
G02*
X121050001Y-180100000I-249999J0D01*
G01*
X120349999Y-180100000D01*
G75*
G02*
X120100000Y-179850001I0J249999D01*
G01*
G37*
%TD*%
%TO.C,R11*%
G36*
G01*
X120100000Y-143850001D02*
X120100000Y-142949999D01*
G75*
G02*
X120349999Y-142700000I249999J0D01*
G01*
X121050001Y-142700000D01*
G75*
G02*
X121300000Y-142949999I0J-249999D01*
G01*
X121300000Y-143850001D01*
G75*
G02*
X121050001Y-144100000I-249999J0D01*
G01*
X120349999Y-144100000D01*
G75*
G02*
X120100000Y-143850001I0J249999D01*
G01*
G37*
G36*
G01*
X118100000Y-143850001D02*
X118100000Y-142949999D01*
G75*
G02*
X118349999Y-142700000I249999J0D01*
G01*
X119050001Y-142700000D01*
G75*
G02*
X119300000Y-142949999I0J-249999D01*
G01*
X119300000Y-143850001D01*
G75*
G02*
X119050001Y-144100000I-249999J0D01*
G01*
X118349999Y-144100000D01*
G75*
G02*
X118100000Y-143850001I0J249999D01*
G01*
G37*
%TD*%
%TO.C,R12*%
G36*
G01*
X118100000Y-107850001D02*
X118100000Y-106949999D01*
G75*
G02*
X118349999Y-106700000I249999J0D01*
G01*
X119050001Y-106700000D01*
G75*
G02*
X119300000Y-106949999I0J-249999D01*
G01*
X119300000Y-107850001D01*
G75*
G02*
X119050001Y-108100000I-249999J0D01*
G01*
X118349999Y-108100000D01*
G75*
G02*
X118100000Y-107850001I0J249999D01*
G01*
G37*
G36*
G01*
X120100000Y-107850001D02*
X120100000Y-106949999D01*
G75*
G02*
X120349999Y-106700000I249999J0D01*
G01*
X121050001Y-106700000D01*
G75*
G02*
X121300000Y-106949999I0J-249999D01*
G01*
X121300000Y-107850001D01*
G75*
G02*
X121050001Y-108100000I-249999J0D01*
G01*
X120349999Y-108100000D01*
G75*
G02*
X120100000Y-107850001I0J249999D01*
G01*
G37*
%TD*%
%TO.C,R13*%
G36*
G01*
X120100000Y-71850001D02*
X120100000Y-70949999D01*
G75*
G02*
X120349999Y-70700000I249999J0D01*
G01*
X121050001Y-70700000D01*
G75*
G02*
X121300000Y-70949999I0J-249999D01*
G01*
X121300000Y-71850001D01*
G75*
G02*
X121050001Y-72100000I-249999J0D01*
G01*
X120349999Y-72100000D01*
G75*
G02*
X120100000Y-71850001I0J249999D01*
G01*
G37*
G36*
G01*
X118100000Y-71850001D02*
X118100000Y-70949999D01*
G75*
G02*
X118349999Y-70700000I249999J0D01*
G01*
X119050001Y-70700000D01*
G75*
G02*
X119300000Y-70949999I0J-249999D01*
G01*
X119300000Y-71850001D01*
G75*
G02*
X119050001Y-72100000I-249999J0D01*
G01*
X118349999Y-72100000D01*
G75*
G02*
X118100000Y-71850001I0J249999D01*
G01*
G37*
%TD*%
%TO.C,R18*%
G36*
G01*
X158280000Y-130400001D02*
X158280000Y-129499999D01*
G75*
G02*
X158529999Y-129250000I249999J0D01*
G01*
X159230001Y-129250000D01*
G75*
G02*
X159480000Y-129499999I0J-249999D01*
G01*
X159480000Y-130400001D01*
G75*
G02*
X159230001Y-130650000I-249999J0D01*
G01*
X158529999Y-130650000D01*
G75*
G02*
X158280000Y-130400001I0J249999D01*
G01*
G37*
G36*
G01*
X156280000Y-130400001D02*
X156280000Y-129499999D01*
G75*
G02*
X156529999Y-129250000I249999J0D01*
G01*
X157230001Y-129250000D01*
G75*
G02*
X157480000Y-129499999I0J-249999D01*
G01*
X157480000Y-130400001D01*
G75*
G02*
X157230001Y-130650000I-249999J0D01*
G01*
X156529999Y-130650000D01*
G75*
G02*
X156280000Y-130400001I0J249999D01*
G01*
G37*
%TD*%
%TO.C,R19*%
G36*
G01*
X145635000Y-138166001D02*
X145635000Y-137265999D01*
G75*
G02*
X145884999Y-137016000I249999J0D01*
G01*
X146585001Y-137016000D01*
G75*
G02*
X146835000Y-137265999I0J-249999D01*
G01*
X146835000Y-138166001D01*
G75*
G02*
X146585001Y-138416000I-249999J0D01*
G01*
X145884999Y-138416000D01*
G75*
G02*
X145635000Y-138166001I0J249999D01*
G01*
G37*
G36*
G01*
X143635000Y-138166001D02*
X143635000Y-137265999D01*
G75*
G02*
X143884999Y-137016000I249999J0D01*
G01*
X144585001Y-137016000D01*
G75*
G02*
X144835000Y-137265999I0J-249999D01*
G01*
X144835000Y-138166001D01*
G75*
G02*
X144585001Y-138416000I-249999J0D01*
G01*
X143884999Y-138416000D01*
G75*
G02*
X143635000Y-138166001I0J249999D01*
G01*
G37*
%TD*%
%TO.C,R20*%
G36*
G01*
X165428200Y-140960001D02*
X165428200Y-140059999D01*
G75*
G02*
X165678199Y-139810000I249999J0D01*
G01*
X166378201Y-139810000D01*
G75*
G02*
X166628200Y-140059999I0J-249999D01*
G01*
X166628200Y-140960001D01*
G75*
G02*
X166378201Y-141210000I-249999J0D01*
G01*
X165678199Y-141210000D01*
G75*
G02*
X165428200Y-140960001I0J249999D01*
G01*
G37*
G36*
G01*
X167428200Y-140960001D02*
X167428200Y-140059999D01*
G75*
G02*
X167678199Y-139810000I249999J0D01*
G01*
X168378201Y-139810000D01*
G75*
G02*
X168628200Y-140059999I0J-249999D01*
G01*
X168628200Y-140960001D01*
G75*
G02*
X168378201Y-141210000I-249999J0D01*
G01*
X167678199Y-141210000D01*
G75*
G02*
X167428200Y-140960001I0J249999D01*
G01*
G37*
%TD*%
%TO.C,R21*%
G36*
G01*
X162043400Y-140960001D02*
X162043400Y-140059999D01*
G75*
G02*
X162293399Y-139810000I249999J0D01*
G01*
X162993401Y-139810000D01*
G75*
G02*
X163243400Y-140059999I0J-249999D01*
G01*
X163243400Y-140960001D01*
G75*
G02*
X162993401Y-141210000I-249999J0D01*
G01*
X162293399Y-141210000D01*
G75*
G02*
X162043400Y-140960001I0J249999D01*
G01*
G37*
G36*
G01*
X160043400Y-140960001D02*
X160043400Y-140059999D01*
G75*
G02*
X160293399Y-139810000I249999J0D01*
G01*
X160993401Y-139810000D01*
G75*
G02*
X161243400Y-140059999I0J-249999D01*
G01*
X161243400Y-140960001D01*
G75*
G02*
X160993401Y-141210000I-249999J0D01*
G01*
X160293399Y-141210000D01*
G75*
G02*
X160043400Y-140960001I0J249999D01*
G01*
G37*
%TD*%
%TO.C,R22*%
G36*
G01*
X177924600Y-158411499D02*
X177924600Y-159311501D01*
G75*
G02*
X177674601Y-159561500I-249999J0D01*
G01*
X176974599Y-159561500D01*
G75*
G02*
X176724600Y-159311501I0J249999D01*
G01*
X176724600Y-158411499D01*
G75*
G02*
X176974599Y-158161500I249999J0D01*
G01*
X177674601Y-158161500D01*
G75*
G02*
X177924600Y-158411499I0J-249999D01*
G01*
G37*
G36*
G01*
X175924600Y-158411499D02*
X175924600Y-159311501D01*
G75*
G02*
X175674601Y-159561500I-249999J0D01*
G01*
X174974599Y-159561500D01*
G75*
G02*
X174724600Y-159311501I0J249999D01*
G01*
X174724600Y-158411499D01*
G75*
G02*
X174974599Y-158161500I249999J0D01*
G01*
X175674601Y-158161500D01*
G75*
G02*
X175924600Y-158411499I0J-249999D01*
G01*
G37*
%TD*%
%TO.C,R23*%
G36*
G01*
X143635000Y-140452001D02*
X143635000Y-139551999D01*
G75*
G02*
X143884999Y-139302000I249999J0D01*
G01*
X144585001Y-139302000D01*
G75*
G02*
X144835000Y-139551999I0J-249999D01*
G01*
X144835000Y-140452001D01*
G75*
G02*
X144585001Y-140702000I-249999J0D01*
G01*
X143884999Y-140702000D01*
G75*
G02*
X143635000Y-140452001I0J249999D01*
G01*
G37*
G36*
G01*
X145635000Y-140452001D02*
X145635000Y-139551999D01*
G75*
G02*
X145884999Y-139302000I249999J0D01*
G01*
X146585001Y-139302000D01*
G75*
G02*
X146835000Y-139551999I0J-249999D01*
G01*
X146835000Y-140452001D01*
G75*
G02*
X146585001Y-140702000I-249999J0D01*
G01*
X145884999Y-140702000D01*
G75*
G02*
X145635000Y-140452001I0J249999D01*
G01*
G37*
%TD*%
%TO.C,R24*%
G36*
G01*
X162068800Y-148021201D02*
X162068800Y-147121199D01*
G75*
G02*
X162318799Y-146871200I249999J0D01*
G01*
X163018801Y-146871200D01*
G75*
G02*
X163268800Y-147121199I0J-249999D01*
G01*
X163268800Y-148021201D01*
G75*
G02*
X163018801Y-148271200I-249999J0D01*
G01*
X162318799Y-148271200D01*
G75*
G02*
X162068800Y-148021201I0J249999D01*
G01*
G37*
G36*
G01*
X160068800Y-148021201D02*
X160068800Y-147121199D01*
G75*
G02*
X160318799Y-146871200I249999J0D01*
G01*
X161018801Y-146871200D01*
G75*
G02*
X161268800Y-147121199I0J-249999D01*
G01*
X161268800Y-148021201D01*
G75*
G02*
X161018801Y-148271200I-249999J0D01*
G01*
X160318799Y-148271200D01*
G75*
G02*
X160068800Y-148021201I0J249999D01*
G01*
G37*
%TD*%
%TO.C,R25*%
G36*
G01*
X165428200Y-145659001D02*
X165428200Y-144758999D01*
G75*
G02*
X165678199Y-144509000I249999J0D01*
G01*
X166378201Y-144509000D01*
G75*
G02*
X166628200Y-144758999I0J-249999D01*
G01*
X166628200Y-145659001D01*
G75*
G02*
X166378201Y-145909000I-249999J0D01*
G01*
X165678199Y-145909000D01*
G75*
G02*
X165428200Y-145659001I0J249999D01*
G01*
G37*
G36*
G01*
X167428200Y-145659001D02*
X167428200Y-144758999D01*
G75*
G02*
X167678199Y-144509000I249999J0D01*
G01*
X168378201Y-144509000D01*
G75*
G02*
X168628200Y-144758999I0J-249999D01*
G01*
X168628200Y-145659001D01*
G75*
G02*
X168378201Y-145909000I-249999J0D01*
G01*
X167678199Y-145909000D01*
G75*
G02*
X167428200Y-145659001I0J249999D01*
G01*
G37*
%TD*%
%TO.C,R26*%
G36*
G01*
X162043400Y-145659001D02*
X162043400Y-144758999D01*
G75*
G02*
X162293399Y-144509000I249999J0D01*
G01*
X162993401Y-144509000D01*
G75*
G02*
X163243400Y-144758999I0J-249999D01*
G01*
X163243400Y-145659001D01*
G75*
G02*
X162993401Y-145909000I-249999J0D01*
G01*
X162293399Y-145909000D01*
G75*
G02*
X162043400Y-145659001I0J249999D01*
G01*
G37*
G36*
G01*
X160043400Y-145659001D02*
X160043400Y-144758999D01*
G75*
G02*
X160293399Y-144509000I249999J0D01*
G01*
X160993401Y-144509000D01*
G75*
G02*
X161243400Y-144758999I0J-249999D01*
G01*
X161243400Y-145659001D01*
G75*
G02*
X160993401Y-145909000I-249999J0D01*
G01*
X160293399Y-145909000D01*
G75*
G02*
X160043400Y-145659001I0J249999D01*
G01*
G37*
%TD*%
%TO.C,R27*%
G36*
G01*
X165428200Y-143322201D02*
X165428200Y-142422199D01*
G75*
G02*
X165678199Y-142172200I249999J0D01*
G01*
X166378201Y-142172200D01*
G75*
G02*
X166628200Y-142422199I0J-249999D01*
G01*
X166628200Y-143322201D01*
G75*
G02*
X166378201Y-143572200I-249999J0D01*
G01*
X165678199Y-143572200D01*
G75*
G02*
X165428200Y-143322201I0J249999D01*
G01*
G37*
G36*
G01*
X167428200Y-143322201D02*
X167428200Y-142422199D01*
G75*
G02*
X167678199Y-142172200I249999J0D01*
G01*
X168378201Y-142172200D01*
G75*
G02*
X168628200Y-142422199I0J-249999D01*
G01*
X168628200Y-143322201D01*
G75*
G02*
X168378201Y-143572200I-249999J0D01*
G01*
X167678199Y-143572200D01*
G75*
G02*
X167428200Y-143322201I0J249999D01*
G01*
G37*
%TD*%
%TO.C,R28*%
G36*
G01*
X162043400Y-143322201D02*
X162043400Y-142422199D01*
G75*
G02*
X162293399Y-142172200I249999J0D01*
G01*
X162993401Y-142172200D01*
G75*
G02*
X163243400Y-142422199I0J-249999D01*
G01*
X163243400Y-143322201D01*
G75*
G02*
X162993401Y-143572200I-249999J0D01*
G01*
X162293399Y-143572200D01*
G75*
G02*
X162043400Y-143322201I0J249999D01*
G01*
G37*
G36*
G01*
X160043400Y-143322201D02*
X160043400Y-142422199D01*
G75*
G02*
X160293399Y-142172200I249999J0D01*
G01*
X160993401Y-142172200D01*
G75*
G02*
X161243400Y-142422199I0J-249999D01*
G01*
X161243400Y-143322201D01*
G75*
G02*
X160993401Y-143572200I-249999J0D01*
G01*
X160293399Y-143572200D01*
G75*
G02*
X160043400Y-143322201I0J249999D01*
G01*
G37*
%TD*%
%TO.C,R29*%
G36*
G01*
X148640000Y-120310001D02*
X148640000Y-119409999D01*
G75*
G02*
X148889999Y-119160000I249999J0D01*
G01*
X149590001Y-119160000D01*
G75*
G02*
X149840000Y-119409999I0J-249999D01*
G01*
X149840000Y-120310001D01*
G75*
G02*
X149590001Y-120560000I-249999J0D01*
G01*
X148889999Y-120560000D01*
G75*
G02*
X148640000Y-120310001I0J249999D01*
G01*
G37*
G36*
G01*
X146640000Y-120310001D02*
X146640000Y-119409999D01*
G75*
G02*
X146889999Y-119160000I249999J0D01*
G01*
X147590001Y-119160000D01*
G75*
G02*
X147840000Y-119409999I0J-249999D01*
G01*
X147840000Y-120310001D01*
G75*
G02*
X147590001Y-120560000I-249999J0D01*
G01*
X146889999Y-120560000D01*
G75*
G02*
X146640000Y-120310001I0J249999D01*
G01*
G37*
%TD*%
%TO.C,R30*%
G36*
G01*
X146640000Y-122570001D02*
X146640000Y-121669999D01*
G75*
G02*
X146889999Y-121420000I249999J0D01*
G01*
X147590001Y-121420000D01*
G75*
G02*
X147840000Y-121669999I0J-249999D01*
G01*
X147840000Y-122570001D01*
G75*
G02*
X147590001Y-122820000I-249999J0D01*
G01*
X146889999Y-122820000D01*
G75*
G02*
X146640000Y-122570001I0J249999D01*
G01*
G37*
G36*
G01*
X148640000Y-122570001D02*
X148640000Y-121669999D01*
G75*
G02*
X148889999Y-121420000I249999J0D01*
G01*
X149590001Y-121420000D01*
G75*
G02*
X149840000Y-121669999I0J-249999D01*
G01*
X149840000Y-122570001D01*
G75*
G02*
X149590001Y-122820000I-249999J0D01*
G01*
X148889999Y-122820000D01*
G75*
G02*
X148640000Y-122570001I0J249999D01*
G01*
G37*
%TD*%
%TO.C,R31*%
G36*
G01*
X146640000Y-124830001D02*
X146640000Y-123929999D01*
G75*
G02*
X146889999Y-123680000I249999J0D01*
G01*
X147590001Y-123680000D01*
G75*
G02*
X147840000Y-123929999I0J-249999D01*
G01*
X147840000Y-124830001D01*
G75*
G02*
X147590001Y-125080000I-249999J0D01*
G01*
X146889999Y-125080000D01*
G75*
G02*
X146640000Y-124830001I0J249999D01*
G01*
G37*
G36*
G01*
X148640000Y-124830001D02*
X148640000Y-123929999D01*
G75*
G02*
X148889999Y-123680000I249999J0D01*
G01*
X149590001Y-123680000D01*
G75*
G02*
X149840000Y-123929999I0J-249999D01*
G01*
X149840000Y-124830001D01*
G75*
G02*
X149590001Y-125080000I-249999J0D01*
G01*
X148889999Y-125080000D01*
G75*
G02*
X148640000Y-124830001I0J249999D01*
G01*
G37*
%TD*%
%TO.C,U1*%
G36*
G01*
X165400000Y-126975000D02*
X165400000Y-127175000D01*
G75*
G02*
X165300000Y-127275000I-100000J0D01*
G01*
X164025000Y-127275000D01*
G75*
G02*
X163925000Y-127175000I0J100000D01*
G01*
X163925000Y-126975000D01*
G75*
G02*
X164025000Y-126875000I100000J0D01*
G01*
X165300000Y-126875000D01*
G75*
G02*
X165400000Y-126975000I0J-100000D01*
G01*
G37*
G36*
G01*
X165400000Y-126325000D02*
X165400000Y-126525000D01*
G75*
G02*
X165300000Y-126625000I-100000J0D01*
G01*
X164025000Y-126625000D01*
G75*
G02*
X163925000Y-126525000I0J100000D01*
G01*
X163925000Y-126325000D01*
G75*
G02*
X164025000Y-126225000I100000J0D01*
G01*
X165300000Y-126225000D01*
G75*
G02*
X165400000Y-126325000I0J-100000D01*
G01*
G37*
G36*
G01*
X165400000Y-125675000D02*
X165400000Y-125875000D01*
G75*
G02*
X165300000Y-125975000I-100000J0D01*
G01*
X164025000Y-125975000D01*
G75*
G02*
X163925000Y-125875000I0J100000D01*
G01*
X163925000Y-125675000D01*
G75*
G02*
X164025000Y-125575000I100000J0D01*
G01*
X165300000Y-125575000D01*
G75*
G02*
X165400000Y-125675000I0J-100000D01*
G01*
G37*
G36*
G01*
X165400000Y-125025000D02*
X165400000Y-125225000D01*
G75*
G02*
X165300000Y-125325000I-100000J0D01*
G01*
X164025000Y-125325000D01*
G75*
G02*
X163925000Y-125225000I0J100000D01*
G01*
X163925000Y-125025000D01*
G75*
G02*
X164025000Y-124925000I100000J0D01*
G01*
X165300000Y-124925000D01*
G75*
G02*
X165400000Y-125025000I0J-100000D01*
G01*
G37*
G36*
G01*
X165400000Y-124375000D02*
X165400000Y-124575000D01*
G75*
G02*
X165300000Y-124675000I-100000J0D01*
G01*
X164025000Y-124675000D01*
G75*
G02*
X163925000Y-124575000I0J100000D01*
G01*
X163925000Y-124375000D01*
G75*
G02*
X164025000Y-124275000I100000J0D01*
G01*
X165300000Y-124275000D01*
G75*
G02*
X165400000Y-124375000I0J-100000D01*
G01*
G37*
G36*
G01*
X165400000Y-123725000D02*
X165400000Y-123925000D01*
G75*
G02*
X165300000Y-124025000I-100000J0D01*
G01*
X164025000Y-124025000D01*
G75*
G02*
X163925000Y-123925000I0J100000D01*
G01*
X163925000Y-123725000D01*
G75*
G02*
X164025000Y-123625000I100000J0D01*
G01*
X165300000Y-123625000D01*
G75*
G02*
X165400000Y-123725000I0J-100000D01*
G01*
G37*
G36*
G01*
X165400000Y-123075000D02*
X165400000Y-123275000D01*
G75*
G02*
X165300000Y-123375000I-100000J0D01*
G01*
X164025000Y-123375000D01*
G75*
G02*
X163925000Y-123275000I0J100000D01*
G01*
X163925000Y-123075000D01*
G75*
G02*
X164025000Y-122975000I100000J0D01*
G01*
X165300000Y-122975000D01*
G75*
G02*
X165400000Y-123075000I0J-100000D01*
G01*
G37*
G36*
G01*
X165400000Y-122425000D02*
X165400000Y-122625000D01*
G75*
G02*
X165300000Y-122725000I-100000J0D01*
G01*
X164025000Y-122725000D01*
G75*
G02*
X163925000Y-122625000I0J100000D01*
G01*
X163925000Y-122425000D01*
G75*
G02*
X164025000Y-122325000I100000J0D01*
G01*
X165300000Y-122325000D01*
G75*
G02*
X165400000Y-122425000I0J-100000D01*
G01*
G37*
G36*
G01*
X159675000Y-122425000D02*
X159675000Y-122625000D01*
G75*
G02*
X159575000Y-122725000I-100000J0D01*
G01*
X158300000Y-122725000D01*
G75*
G02*
X158200000Y-122625000I0J100000D01*
G01*
X158200000Y-122425000D01*
G75*
G02*
X158300000Y-122325000I100000J0D01*
G01*
X159575000Y-122325000D01*
G75*
G02*
X159675000Y-122425000I0J-100000D01*
G01*
G37*
G36*
G01*
X159675000Y-123075000D02*
X159675000Y-123275000D01*
G75*
G02*
X159575000Y-123375000I-100000J0D01*
G01*
X158300000Y-123375000D01*
G75*
G02*
X158200000Y-123275000I0J100000D01*
G01*
X158200000Y-123075000D01*
G75*
G02*
X158300000Y-122975000I100000J0D01*
G01*
X159575000Y-122975000D01*
G75*
G02*
X159675000Y-123075000I0J-100000D01*
G01*
G37*
G36*
G01*
X159675000Y-123725000D02*
X159675000Y-123925000D01*
G75*
G02*
X159575000Y-124025000I-100000J0D01*
G01*
X158300000Y-124025000D01*
G75*
G02*
X158200000Y-123925000I0J100000D01*
G01*
X158200000Y-123725000D01*
G75*
G02*
X158300000Y-123625000I100000J0D01*
G01*
X159575000Y-123625000D01*
G75*
G02*
X159675000Y-123725000I0J-100000D01*
G01*
G37*
G36*
G01*
X159675000Y-124375000D02*
X159675000Y-124575000D01*
G75*
G02*
X159575000Y-124675000I-100000J0D01*
G01*
X158300000Y-124675000D01*
G75*
G02*
X158200000Y-124575000I0J100000D01*
G01*
X158200000Y-124375000D01*
G75*
G02*
X158300000Y-124275000I100000J0D01*
G01*
X159575000Y-124275000D01*
G75*
G02*
X159675000Y-124375000I0J-100000D01*
G01*
G37*
G36*
G01*
X159675000Y-125025000D02*
X159675000Y-125225000D01*
G75*
G02*
X159575000Y-125325000I-100000J0D01*
G01*
X158300000Y-125325000D01*
G75*
G02*
X158200000Y-125225000I0J100000D01*
G01*
X158200000Y-125025000D01*
G75*
G02*
X158300000Y-124925000I100000J0D01*
G01*
X159575000Y-124925000D01*
G75*
G02*
X159675000Y-125025000I0J-100000D01*
G01*
G37*
G36*
G01*
X159675000Y-125675000D02*
X159675000Y-125875000D01*
G75*
G02*
X159575000Y-125975000I-100000J0D01*
G01*
X158300000Y-125975000D01*
G75*
G02*
X158200000Y-125875000I0J100000D01*
G01*
X158200000Y-125675000D01*
G75*
G02*
X158300000Y-125575000I100000J0D01*
G01*
X159575000Y-125575000D01*
G75*
G02*
X159675000Y-125675000I0J-100000D01*
G01*
G37*
G36*
G01*
X159675000Y-126325000D02*
X159675000Y-126525000D01*
G75*
G02*
X159575000Y-126625000I-100000J0D01*
G01*
X158300000Y-126625000D01*
G75*
G02*
X158200000Y-126525000I0J100000D01*
G01*
X158200000Y-126325000D01*
G75*
G02*
X158300000Y-126225000I100000J0D01*
G01*
X159575000Y-126225000D01*
G75*
G02*
X159675000Y-126325000I0J-100000D01*
G01*
G37*
G36*
G01*
X159675000Y-126975000D02*
X159675000Y-127175000D01*
G75*
G02*
X159575000Y-127275000I-100000J0D01*
G01*
X158300000Y-127275000D01*
G75*
G02*
X158200000Y-127175000I0J100000D01*
G01*
X158200000Y-126975000D01*
G75*
G02*
X158300000Y-126875000I100000J0D01*
G01*
X159575000Y-126875000D01*
G75*
G02*
X159675000Y-126975000I0J-100000D01*
G01*
G37*
%TD*%
%TO.C,U2*%
G36*
G01*
X128871500Y-122404000D02*
X128871500Y-122204000D01*
G75*
G02*
X128971500Y-122104000I100000J0D01*
G01*
X130246500Y-122104000D01*
G75*
G02*
X130346500Y-122204000I0J-100000D01*
G01*
X130346500Y-122404000D01*
G75*
G02*
X130246500Y-122504000I-100000J0D01*
G01*
X128971500Y-122504000D01*
G75*
G02*
X128871500Y-122404000I0J100000D01*
G01*
G37*
G36*
G01*
X128871500Y-123054000D02*
X128871500Y-122854000D01*
G75*
G02*
X128971500Y-122754000I100000J0D01*
G01*
X130246500Y-122754000D01*
G75*
G02*
X130346500Y-122854000I0J-100000D01*
G01*
X130346500Y-123054000D01*
G75*
G02*
X130246500Y-123154000I-100000J0D01*
G01*
X128971500Y-123154000D01*
G75*
G02*
X128871500Y-123054000I0J100000D01*
G01*
G37*
G36*
G01*
X128871500Y-123704000D02*
X128871500Y-123504000D01*
G75*
G02*
X128971500Y-123404000I100000J0D01*
G01*
X130246500Y-123404000D01*
G75*
G02*
X130346500Y-123504000I0J-100000D01*
G01*
X130346500Y-123704000D01*
G75*
G02*
X130246500Y-123804000I-100000J0D01*
G01*
X128971500Y-123804000D01*
G75*
G02*
X128871500Y-123704000I0J100000D01*
G01*
G37*
G36*
G01*
X128871500Y-124354000D02*
X128871500Y-124154000D01*
G75*
G02*
X128971500Y-124054000I100000J0D01*
G01*
X130246500Y-124054000D01*
G75*
G02*
X130346500Y-124154000I0J-100000D01*
G01*
X130346500Y-124354000D01*
G75*
G02*
X130246500Y-124454000I-100000J0D01*
G01*
X128971500Y-124454000D01*
G75*
G02*
X128871500Y-124354000I0J100000D01*
G01*
G37*
G36*
G01*
X128871500Y-125004000D02*
X128871500Y-124804000D01*
G75*
G02*
X128971500Y-124704000I100000J0D01*
G01*
X130246500Y-124704000D01*
G75*
G02*
X130346500Y-124804000I0J-100000D01*
G01*
X130346500Y-125004000D01*
G75*
G02*
X130246500Y-125104000I-100000J0D01*
G01*
X128971500Y-125104000D01*
G75*
G02*
X128871500Y-125004000I0J100000D01*
G01*
G37*
G36*
G01*
X128871500Y-125654000D02*
X128871500Y-125454000D01*
G75*
G02*
X128971500Y-125354000I100000J0D01*
G01*
X130246500Y-125354000D01*
G75*
G02*
X130346500Y-125454000I0J-100000D01*
G01*
X130346500Y-125654000D01*
G75*
G02*
X130246500Y-125754000I-100000J0D01*
G01*
X128971500Y-125754000D01*
G75*
G02*
X128871500Y-125654000I0J100000D01*
G01*
G37*
G36*
G01*
X128871500Y-126304000D02*
X128871500Y-126104000D01*
G75*
G02*
X128971500Y-126004000I100000J0D01*
G01*
X130246500Y-126004000D01*
G75*
G02*
X130346500Y-126104000I0J-100000D01*
G01*
X130346500Y-126304000D01*
G75*
G02*
X130246500Y-126404000I-100000J0D01*
G01*
X128971500Y-126404000D01*
G75*
G02*
X128871500Y-126304000I0J100000D01*
G01*
G37*
G36*
G01*
X134596500Y-126304000D02*
X134596500Y-126104000D01*
G75*
G02*
X134696500Y-126004000I100000J0D01*
G01*
X135971500Y-126004000D01*
G75*
G02*
X136071500Y-126104000I0J-100000D01*
G01*
X136071500Y-126304000D01*
G75*
G02*
X135971500Y-126404000I-100000J0D01*
G01*
X134696500Y-126404000D01*
G75*
G02*
X134596500Y-126304000I0J100000D01*
G01*
G37*
G36*
G01*
X134596500Y-125654000D02*
X134596500Y-125454000D01*
G75*
G02*
X134696500Y-125354000I100000J0D01*
G01*
X135971500Y-125354000D01*
G75*
G02*
X136071500Y-125454000I0J-100000D01*
G01*
X136071500Y-125654000D01*
G75*
G02*
X135971500Y-125754000I-100000J0D01*
G01*
X134696500Y-125754000D01*
G75*
G02*
X134596500Y-125654000I0J100000D01*
G01*
G37*
G36*
G01*
X134596500Y-125004000D02*
X134596500Y-124804000D01*
G75*
G02*
X134696500Y-124704000I100000J0D01*
G01*
X135971500Y-124704000D01*
G75*
G02*
X136071500Y-124804000I0J-100000D01*
G01*
X136071500Y-125004000D01*
G75*
G02*
X135971500Y-125104000I-100000J0D01*
G01*
X134696500Y-125104000D01*
G75*
G02*
X134596500Y-125004000I0J100000D01*
G01*
G37*
G36*
G01*
X134596500Y-124354000D02*
X134596500Y-124154000D01*
G75*
G02*
X134696500Y-124054000I100000J0D01*
G01*
X135971500Y-124054000D01*
G75*
G02*
X136071500Y-124154000I0J-100000D01*
G01*
X136071500Y-124354000D01*
G75*
G02*
X135971500Y-124454000I-100000J0D01*
G01*
X134696500Y-124454000D01*
G75*
G02*
X134596500Y-124354000I0J100000D01*
G01*
G37*
G36*
G01*
X134596500Y-123704000D02*
X134596500Y-123504000D01*
G75*
G02*
X134696500Y-123404000I100000J0D01*
G01*
X135971500Y-123404000D01*
G75*
G02*
X136071500Y-123504000I0J-100000D01*
G01*
X136071500Y-123704000D01*
G75*
G02*
X135971500Y-123804000I-100000J0D01*
G01*
X134696500Y-123804000D01*
G75*
G02*
X134596500Y-123704000I0J100000D01*
G01*
G37*
G36*
G01*
X134596500Y-123054000D02*
X134596500Y-122854000D01*
G75*
G02*
X134696500Y-122754000I100000J0D01*
G01*
X135971500Y-122754000D01*
G75*
G02*
X136071500Y-122854000I0J-100000D01*
G01*
X136071500Y-123054000D01*
G75*
G02*
X135971500Y-123154000I-100000J0D01*
G01*
X134696500Y-123154000D01*
G75*
G02*
X134596500Y-123054000I0J100000D01*
G01*
G37*
G36*
G01*
X134596500Y-122404000D02*
X134596500Y-122204000D01*
G75*
G02*
X134696500Y-122104000I100000J0D01*
G01*
X135971500Y-122104000D01*
G75*
G02*
X136071500Y-122204000I0J-100000D01*
G01*
X136071500Y-122404000D01*
G75*
G02*
X135971500Y-122504000I-100000J0D01*
G01*
X134696500Y-122504000D01*
G75*
G02*
X134596500Y-122404000I0J100000D01*
G01*
G37*
%TD*%
%TO.C,U4*%
G36*
G01*
X147334600Y-142343000D02*
X147334600Y-142143000D01*
G75*
G02*
X147434600Y-142043000I100000J0D01*
G01*
X148709600Y-142043000D01*
G75*
G02*
X148809600Y-142143000I0J-100000D01*
G01*
X148809600Y-142343000D01*
G75*
G02*
X148709600Y-142443000I-100000J0D01*
G01*
X147434600Y-142443000D01*
G75*
G02*
X147334600Y-142343000I0J100000D01*
G01*
G37*
G36*
G01*
X147334600Y-142993000D02*
X147334600Y-142793000D01*
G75*
G02*
X147434600Y-142693000I100000J0D01*
G01*
X148709600Y-142693000D01*
G75*
G02*
X148809600Y-142793000I0J-100000D01*
G01*
X148809600Y-142993000D01*
G75*
G02*
X148709600Y-143093000I-100000J0D01*
G01*
X147434600Y-143093000D01*
G75*
G02*
X147334600Y-142993000I0J100000D01*
G01*
G37*
G36*
G01*
X147334600Y-143643000D02*
X147334600Y-143443000D01*
G75*
G02*
X147434600Y-143343000I100000J0D01*
G01*
X148709600Y-143343000D01*
G75*
G02*
X148809600Y-143443000I0J-100000D01*
G01*
X148809600Y-143643000D01*
G75*
G02*
X148709600Y-143743000I-100000J0D01*
G01*
X147434600Y-143743000D01*
G75*
G02*
X147334600Y-143643000I0J100000D01*
G01*
G37*
G36*
G01*
X147334600Y-144293000D02*
X147334600Y-144093000D01*
G75*
G02*
X147434600Y-143993000I100000J0D01*
G01*
X148709600Y-143993000D01*
G75*
G02*
X148809600Y-144093000I0J-100000D01*
G01*
X148809600Y-144293000D01*
G75*
G02*
X148709600Y-144393000I-100000J0D01*
G01*
X147434600Y-144393000D01*
G75*
G02*
X147334600Y-144293000I0J100000D01*
G01*
G37*
G36*
G01*
X147334600Y-144943000D02*
X147334600Y-144743000D01*
G75*
G02*
X147434600Y-144643000I100000J0D01*
G01*
X148709600Y-144643000D01*
G75*
G02*
X148809600Y-144743000I0J-100000D01*
G01*
X148809600Y-144943000D01*
G75*
G02*
X148709600Y-145043000I-100000J0D01*
G01*
X147434600Y-145043000D01*
G75*
G02*
X147334600Y-144943000I0J100000D01*
G01*
G37*
G36*
G01*
X147334600Y-145593000D02*
X147334600Y-145393000D01*
G75*
G02*
X147434600Y-145293000I100000J0D01*
G01*
X148709600Y-145293000D01*
G75*
G02*
X148809600Y-145393000I0J-100000D01*
G01*
X148809600Y-145593000D01*
G75*
G02*
X148709600Y-145693000I-100000J0D01*
G01*
X147434600Y-145693000D01*
G75*
G02*
X147334600Y-145593000I0J100000D01*
G01*
G37*
G36*
G01*
X147334600Y-146243000D02*
X147334600Y-146043000D01*
G75*
G02*
X147434600Y-145943000I100000J0D01*
G01*
X148709600Y-145943000D01*
G75*
G02*
X148809600Y-146043000I0J-100000D01*
G01*
X148809600Y-146243000D01*
G75*
G02*
X148709600Y-146343000I-100000J0D01*
G01*
X147434600Y-146343000D01*
G75*
G02*
X147334600Y-146243000I0J100000D01*
G01*
G37*
G36*
G01*
X141609600Y-146243000D02*
X141609600Y-146043000D01*
G75*
G02*
X141709600Y-145943000I100000J0D01*
G01*
X142984600Y-145943000D01*
G75*
G02*
X143084600Y-146043000I0J-100000D01*
G01*
X143084600Y-146243000D01*
G75*
G02*
X142984600Y-146343000I-100000J0D01*
G01*
X141709600Y-146343000D01*
G75*
G02*
X141609600Y-146243000I0J100000D01*
G01*
G37*
G36*
G01*
X141609600Y-145593000D02*
X141609600Y-145393000D01*
G75*
G02*
X141709600Y-145293000I100000J0D01*
G01*
X142984600Y-145293000D01*
G75*
G02*
X143084600Y-145393000I0J-100000D01*
G01*
X143084600Y-145593000D01*
G75*
G02*
X142984600Y-145693000I-100000J0D01*
G01*
X141709600Y-145693000D01*
G75*
G02*
X141609600Y-145593000I0J100000D01*
G01*
G37*
G36*
G01*
X141609600Y-144943000D02*
X141609600Y-144743000D01*
G75*
G02*
X141709600Y-144643000I100000J0D01*
G01*
X142984600Y-144643000D01*
G75*
G02*
X143084600Y-144743000I0J-100000D01*
G01*
X143084600Y-144943000D01*
G75*
G02*
X142984600Y-145043000I-100000J0D01*
G01*
X141709600Y-145043000D01*
G75*
G02*
X141609600Y-144943000I0J100000D01*
G01*
G37*
G36*
G01*
X141609600Y-144293000D02*
X141609600Y-144093000D01*
G75*
G02*
X141709600Y-143993000I100000J0D01*
G01*
X142984600Y-143993000D01*
G75*
G02*
X143084600Y-144093000I0J-100000D01*
G01*
X143084600Y-144293000D01*
G75*
G02*
X142984600Y-144393000I-100000J0D01*
G01*
X141709600Y-144393000D01*
G75*
G02*
X141609600Y-144293000I0J100000D01*
G01*
G37*
G36*
G01*
X141609600Y-143643000D02*
X141609600Y-143443000D01*
G75*
G02*
X141709600Y-143343000I100000J0D01*
G01*
X142984600Y-143343000D01*
G75*
G02*
X143084600Y-143443000I0J-100000D01*
G01*
X143084600Y-143643000D01*
G75*
G02*
X142984600Y-143743000I-100000J0D01*
G01*
X141709600Y-143743000D01*
G75*
G02*
X141609600Y-143643000I0J100000D01*
G01*
G37*
G36*
G01*
X141609600Y-142993000D02*
X141609600Y-142793000D01*
G75*
G02*
X141709600Y-142693000I100000J0D01*
G01*
X142984600Y-142693000D01*
G75*
G02*
X143084600Y-142793000I0J-100000D01*
G01*
X143084600Y-142993000D01*
G75*
G02*
X142984600Y-143093000I-100000J0D01*
G01*
X141709600Y-143093000D01*
G75*
G02*
X141609600Y-142993000I0J100000D01*
G01*
G37*
G36*
G01*
X141609600Y-142343000D02*
X141609600Y-142143000D01*
G75*
G02*
X141709600Y-142043000I100000J0D01*
G01*
X142984600Y-142043000D01*
G75*
G02*
X143084600Y-142143000I0J-100000D01*
G01*
X143084600Y-142343000D01*
G75*
G02*
X142984600Y-142443000I-100000J0D01*
G01*
X141709600Y-142443000D01*
G75*
G02*
X141609600Y-142343000I0J100000D01*
G01*
G37*
%TD*%
D18*
%TO.C,U5*%
X137136200Y-115044000D03*
X137136200Y-114094000D03*
X137136200Y-113144000D03*
X134436200Y-113144000D03*
X134436200Y-115044000D03*
%TD*%
D14*
%TO.C,U6*%
G36*
X154706334Y-156739555D02*
G01*
X155095243Y-157128464D01*
X153963872Y-158259835D01*
X153574963Y-157870926D01*
X154706334Y-156739555D01*
G37*
G36*
X154140648Y-156173870D02*
G01*
X154529557Y-156562779D01*
X153398186Y-157694150D01*
X153009277Y-157305241D01*
X154140648Y-156173870D01*
G37*
G36*
X153574963Y-155608184D02*
G01*
X153963872Y-155997093D01*
X152832501Y-157128464D01*
X152443592Y-156739555D01*
X153574963Y-155608184D01*
G37*
G36*
X153009278Y-155042499D02*
G01*
X153398187Y-155431408D01*
X152266816Y-156562779D01*
X151877907Y-156173870D01*
X153009278Y-155042499D01*
G37*
G36*
X152443592Y-154476813D02*
G01*
X152832501Y-154865722D01*
X151701130Y-155997093D01*
X151312221Y-155608184D01*
X152443592Y-154476813D01*
G37*
G36*
X151877907Y-153911128D02*
G01*
X152266816Y-154300037D01*
X151135445Y-155431408D01*
X150746536Y-155042499D01*
X151877907Y-153911128D01*
G37*
G36*
X151312221Y-153345443D02*
G01*
X151701130Y-153734352D01*
X150569759Y-154865723D01*
X150180850Y-154476814D01*
X151312221Y-153345443D01*
G37*
G36*
X150746536Y-152779757D02*
G01*
X151135445Y-153168666D01*
X150004074Y-154300037D01*
X149615165Y-153911128D01*
X150746536Y-152779757D01*
G37*
G36*
X147564555Y-153168666D02*
G01*
X147953464Y-152779757D01*
X149084835Y-153911128D01*
X148695926Y-154300037D01*
X147564555Y-153168666D01*
G37*
G36*
X146998870Y-153734352D02*
G01*
X147387779Y-153345443D01*
X148519150Y-154476814D01*
X148130241Y-154865723D01*
X146998870Y-153734352D01*
G37*
G36*
X146433184Y-154300037D02*
G01*
X146822093Y-153911128D01*
X147953464Y-155042499D01*
X147564555Y-155431408D01*
X146433184Y-154300037D01*
G37*
G36*
X145867499Y-154865722D02*
G01*
X146256408Y-154476813D01*
X147387779Y-155608184D01*
X146998870Y-155997093D01*
X145867499Y-154865722D01*
G37*
G36*
X145301813Y-155431408D02*
G01*
X145690722Y-155042499D01*
X146822093Y-156173870D01*
X146433184Y-156562779D01*
X145301813Y-155431408D01*
G37*
G36*
X144736128Y-155997093D02*
G01*
X145125037Y-155608184D01*
X146256408Y-156739555D01*
X145867499Y-157128464D01*
X144736128Y-155997093D01*
G37*
G36*
X144170443Y-156562779D02*
G01*
X144559352Y-156173870D01*
X145690723Y-157305241D01*
X145301814Y-157694150D01*
X144170443Y-156562779D01*
G37*
G36*
X143604757Y-157128464D02*
G01*
X143993666Y-156739555D01*
X145125037Y-157870926D01*
X144736128Y-158259835D01*
X143604757Y-157128464D01*
G37*
G36*
X144736128Y-158790165D02*
G01*
X145125037Y-159179074D01*
X143993666Y-160310445D01*
X143604757Y-159921536D01*
X144736128Y-158790165D01*
G37*
G36*
X145301814Y-159355850D02*
G01*
X145690723Y-159744759D01*
X144559352Y-160876130D01*
X144170443Y-160487221D01*
X145301814Y-159355850D01*
G37*
G36*
X145867499Y-159921536D02*
G01*
X146256408Y-160310445D01*
X145125037Y-161441816D01*
X144736128Y-161052907D01*
X145867499Y-159921536D01*
G37*
G36*
X146433184Y-160487221D02*
G01*
X146822093Y-160876130D01*
X145690722Y-162007501D01*
X145301813Y-161618592D01*
X146433184Y-160487221D01*
G37*
G36*
X146998870Y-161052907D02*
G01*
X147387779Y-161441816D01*
X146256408Y-162573187D01*
X145867499Y-162184278D01*
X146998870Y-161052907D01*
G37*
G36*
X147564555Y-161618592D02*
G01*
X147953464Y-162007501D01*
X146822093Y-163138872D01*
X146433184Y-162749963D01*
X147564555Y-161618592D01*
G37*
G36*
X148130241Y-162184277D02*
G01*
X148519150Y-162573186D01*
X147387779Y-163704557D01*
X146998870Y-163315648D01*
X148130241Y-162184277D01*
G37*
G36*
X148695926Y-162749963D02*
G01*
X149084835Y-163138872D01*
X147953464Y-164270243D01*
X147564555Y-163881334D01*
X148695926Y-162749963D01*
G37*
G36*
X149615165Y-163138872D02*
G01*
X150004074Y-162749963D01*
X151135445Y-163881334D01*
X150746536Y-164270243D01*
X149615165Y-163138872D01*
G37*
G36*
X150180850Y-162573186D02*
G01*
X150569759Y-162184277D01*
X151701130Y-163315648D01*
X151312221Y-163704557D01*
X150180850Y-162573186D01*
G37*
G36*
X150746536Y-162007501D02*
G01*
X151135445Y-161618592D01*
X152266816Y-162749963D01*
X151877907Y-163138872D01*
X150746536Y-162007501D01*
G37*
G36*
X151312221Y-161441816D02*
G01*
X151701130Y-161052907D01*
X152832501Y-162184278D01*
X152443592Y-162573187D01*
X151312221Y-161441816D01*
G37*
G36*
X151877907Y-160876130D02*
G01*
X152266816Y-160487221D01*
X153398187Y-161618592D01*
X153009278Y-162007501D01*
X151877907Y-160876130D01*
G37*
G36*
X152443592Y-160310445D02*
G01*
X152832501Y-159921536D01*
X153963872Y-161052907D01*
X153574963Y-161441816D01*
X152443592Y-160310445D01*
G37*
G36*
X153009277Y-159744759D02*
G01*
X153398186Y-159355850D01*
X154529557Y-160487221D01*
X154140648Y-160876130D01*
X153009277Y-159744759D01*
G37*
G36*
X153574963Y-159179074D02*
G01*
X153963872Y-158790165D01*
X155095243Y-159921536D01*
X154706334Y-160310445D01*
X153574963Y-159179074D01*
G37*
%TD*%
D19*
%TO.C,U101*%
X146850500Y-110807500D03*
D20*
X140550500Y-110807500D03*
X140550500Y-113107500D03*
X140550500Y-108507500D03*
%TD*%
D21*
%TO.C,J5*%
X185730000Y-84030000D03*
X185730000Y-86570000D03*
X185730000Y-89110000D03*
X185730000Y-91650000D03*
X185730000Y-94190000D03*
X185730000Y-96730000D03*
X185730000Y-99270000D03*
X185730000Y-101810000D03*
X185730000Y-104350000D03*
X185730000Y-106890000D03*
X185730000Y-109430000D03*
X185730000Y-111970000D03*
X185730000Y-114510000D03*
X185730000Y-117050000D03*
X185730000Y-119590000D03*
X185730000Y-122130000D03*
X185730000Y-124670000D03*
X185730000Y-127210000D03*
X185730000Y-129750000D03*
X185730000Y-132290000D03*
X185730000Y-134830000D03*
X185730000Y-137370000D03*
X185730000Y-139910000D03*
X185730000Y-142450000D03*
X185730000Y-144990000D03*
X185730000Y-147530000D03*
X185730000Y-150070000D03*
X185730000Y-152610000D03*
X185730000Y-155150000D03*
X185730000Y-157690000D03*
X185730000Y-160230000D03*
X185730000Y-162770000D03*
X188270000Y-84030000D03*
X188270000Y-86570000D03*
X188270000Y-89110000D03*
X188270000Y-91650000D03*
X188270000Y-94190000D03*
X188270000Y-96730000D03*
X188270000Y-99270000D03*
X188270000Y-101810000D03*
X188270000Y-104350000D03*
X188270000Y-106890000D03*
X188270000Y-109430000D03*
X188270000Y-111970000D03*
X188270000Y-114510000D03*
X188270000Y-117050000D03*
X188270000Y-119590000D03*
X188270000Y-122130000D03*
X188270000Y-124670000D03*
X188270000Y-127210000D03*
X188270000Y-129750000D03*
X188270000Y-132290000D03*
X188270000Y-134830000D03*
X188270000Y-137370000D03*
X188270000Y-139910000D03*
X188270000Y-142450000D03*
X188270000Y-144990000D03*
X188270000Y-147530000D03*
X188270000Y-150070000D03*
X188270000Y-152610000D03*
X188270000Y-155150000D03*
X188270000Y-157690000D03*
X188270000Y-160230000D03*
X188270000Y-162770000D03*
%TD*%
M02*
