%TF.GenerationSoftware,KiCad,Pcbnew,5.1.10-88a1d61d58~88~ubuntu20.04.1*%
%TF.CreationDate,2021-08-10T20:43:04+02:00*%
%TF.ProjectId,bkm-129x-simple,626b6d2d-3132-4397-982d-73696d706c65,rev?*%
%TF.SameCoordinates,Original*%
%TF.FileFunction,Soldermask,Top*%
%TF.FilePolarity,Negative*%
%FSLAX46Y46*%
G04 Gerber Fmt 4.6, Leading zero omitted, Abs format (unit mm)*
G04 Created by KiCad (PCBNEW 5.1.10-88a1d61d58~88~ubuntu20.04.1) date 2021-08-10 20:43:04*
%MOMM*%
%LPD*%
G01*
G04 APERTURE LIST*
%ADD10C,0.100000*%
%ADD11C,1.524000*%
%ADD12R,1.500000X1.250000*%
%ADD13R,2.500000X1.200000*%
%ADD14C,1.500000*%
%ADD15C,3.200000*%
%ADD16R,1.500000X1.300000*%
%ADD17R,3.500000X1.600000*%
%ADD18R,1.560000X0.650000*%
%ADD19R,1.450000X0.450000*%
%ADD20R,1.500000X0.450000*%
%ADD21R,1.800000X0.800000*%
%ADD22R,1.250000X1.500000*%
%ADD23R,1.600000X3.500000*%
%ADD24R,1.700000X1.700000*%
%ADD25O,1.700000X1.700000*%
G04 APERTURE END LIST*
D10*
%TO.C,U6*%
G36*
X154706334Y-156739555D02*
G01*
X155095243Y-157128464D01*
X153963872Y-158259835D01*
X153574963Y-157870926D01*
X154706334Y-156739555D01*
G37*
G36*
X154140648Y-156173870D02*
G01*
X154529557Y-156562779D01*
X153398186Y-157694150D01*
X153009277Y-157305241D01*
X154140648Y-156173870D01*
G37*
G36*
X153574963Y-155608184D02*
G01*
X153963872Y-155997093D01*
X152832501Y-157128464D01*
X152443592Y-156739555D01*
X153574963Y-155608184D01*
G37*
G36*
X153009278Y-155042499D02*
G01*
X153398187Y-155431408D01*
X152266816Y-156562779D01*
X151877907Y-156173870D01*
X153009278Y-155042499D01*
G37*
G36*
X152443592Y-154476813D02*
G01*
X152832501Y-154865722D01*
X151701130Y-155997093D01*
X151312221Y-155608184D01*
X152443592Y-154476813D01*
G37*
G36*
X151877907Y-153911128D02*
G01*
X152266816Y-154300037D01*
X151135445Y-155431408D01*
X150746536Y-155042499D01*
X151877907Y-153911128D01*
G37*
G36*
X151312221Y-153345443D02*
G01*
X151701130Y-153734352D01*
X150569759Y-154865723D01*
X150180850Y-154476814D01*
X151312221Y-153345443D01*
G37*
G36*
X150746536Y-152779757D02*
G01*
X151135445Y-153168666D01*
X150004074Y-154300037D01*
X149615165Y-153911128D01*
X150746536Y-152779757D01*
G37*
G36*
X147564555Y-153168666D02*
G01*
X147953464Y-152779757D01*
X149084835Y-153911128D01*
X148695926Y-154300037D01*
X147564555Y-153168666D01*
G37*
G36*
X146998870Y-153734352D02*
G01*
X147387779Y-153345443D01*
X148519150Y-154476814D01*
X148130241Y-154865723D01*
X146998870Y-153734352D01*
G37*
G36*
X146433184Y-154300037D02*
G01*
X146822093Y-153911128D01*
X147953464Y-155042499D01*
X147564555Y-155431408D01*
X146433184Y-154300037D01*
G37*
G36*
X145867499Y-154865722D02*
G01*
X146256408Y-154476813D01*
X147387779Y-155608184D01*
X146998870Y-155997093D01*
X145867499Y-154865722D01*
G37*
G36*
X145301813Y-155431408D02*
G01*
X145690722Y-155042499D01*
X146822093Y-156173870D01*
X146433184Y-156562779D01*
X145301813Y-155431408D01*
G37*
G36*
X144736128Y-155997093D02*
G01*
X145125037Y-155608184D01*
X146256408Y-156739555D01*
X145867499Y-157128464D01*
X144736128Y-155997093D01*
G37*
G36*
X144170443Y-156562779D02*
G01*
X144559352Y-156173870D01*
X145690723Y-157305241D01*
X145301814Y-157694150D01*
X144170443Y-156562779D01*
G37*
G36*
X143604757Y-157128464D02*
G01*
X143993666Y-156739555D01*
X145125037Y-157870926D01*
X144736128Y-158259835D01*
X143604757Y-157128464D01*
G37*
G36*
X144736128Y-158790165D02*
G01*
X145125037Y-159179074D01*
X143993666Y-160310445D01*
X143604757Y-159921536D01*
X144736128Y-158790165D01*
G37*
G36*
X145301814Y-159355850D02*
G01*
X145690723Y-159744759D01*
X144559352Y-160876130D01*
X144170443Y-160487221D01*
X145301814Y-159355850D01*
G37*
G36*
X145867499Y-159921536D02*
G01*
X146256408Y-160310445D01*
X145125037Y-161441816D01*
X144736128Y-161052907D01*
X145867499Y-159921536D01*
G37*
G36*
X146433184Y-160487221D02*
G01*
X146822093Y-160876130D01*
X145690722Y-162007501D01*
X145301813Y-161618592D01*
X146433184Y-160487221D01*
G37*
G36*
X146998870Y-161052907D02*
G01*
X147387779Y-161441816D01*
X146256408Y-162573187D01*
X145867499Y-162184278D01*
X146998870Y-161052907D01*
G37*
G36*
X147564555Y-161618592D02*
G01*
X147953464Y-162007501D01*
X146822093Y-163138872D01*
X146433184Y-162749963D01*
X147564555Y-161618592D01*
G37*
G36*
X148130241Y-162184277D02*
G01*
X148519150Y-162573186D01*
X147387779Y-163704557D01*
X146998870Y-163315648D01*
X148130241Y-162184277D01*
G37*
G36*
X148695926Y-162749963D02*
G01*
X149084835Y-163138872D01*
X147953464Y-164270243D01*
X147564555Y-163881334D01*
X148695926Y-162749963D01*
G37*
G36*
X149615165Y-163138872D02*
G01*
X150004074Y-162749963D01*
X151135445Y-163881334D01*
X150746536Y-164270243D01*
X149615165Y-163138872D01*
G37*
G36*
X150180850Y-162573186D02*
G01*
X150569759Y-162184277D01*
X151701130Y-163315648D01*
X151312221Y-163704557D01*
X150180850Y-162573186D01*
G37*
G36*
X150746536Y-162007501D02*
G01*
X151135445Y-161618592D01*
X152266816Y-162749963D01*
X151877907Y-163138872D01*
X150746536Y-162007501D01*
G37*
G36*
X151312221Y-161441816D02*
G01*
X151701130Y-161052907D01*
X152832501Y-162184278D01*
X152443592Y-162573187D01*
X151312221Y-161441816D01*
G37*
G36*
X151877907Y-160876130D02*
G01*
X152266816Y-160487221D01*
X153398187Y-161618592D01*
X153009278Y-162007501D01*
X151877907Y-160876130D01*
G37*
G36*
X152443592Y-160310445D02*
G01*
X152832501Y-159921536D01*
X153963872Y-161052907D01*
X153574963Y-161441816D01*
X152443592Y-160310445D01*
G37*
G36*
X153009277Y-159744759D02*
G01*
X153398186Y-159355850D01*
X154529557Y-160487221D01*
X154140648Y-160876130D01*
X153009277Y-159744759D01*
G37*
G36*
X153574963Y-159179074D02*
G01*
X153963872Y-158790165D01*
X155095243Y-159921536D01*
X154706334Y-160310445D01*
X153574963Y-159179074D01*
G37*
%TD*%
D11*
%TO.C,U3*%
X167117100Y-150924000D03*
X164577100Y-150924000D03*
X162037100Y-150924000D03*
X159497100Y-150924000D03*
X156957100Y-150924000D03*
X154417100Y-150924000D03*
X151877100Y-150924000D03*
X149337100Y-150924000D03*
X146797100Y-150924000D03*
X144257100Y-150924000D03*
X141717100Y-150924000D03*
X139177100Y-150924000D03*
X136637100Y-150924000D03*
X134097100Y-150924000D03*
X131557100Y-150924000D03*
X131557100Y-166164000D03*
X134097100Y-166164000D03*
X136637100Y-166164000D03*
X139177100Y-166164000D03*
X141717100Y-166164000D03*
X144257100Y-166164000D03*
X146797100Y-166164000D03*
X149337100Y-166164000D03*
X151877100Y-166164000D03*
X154417100Y-166164000D03*
X156957100Y-166164000D03*
X159497100Y-166164000D03*
X162037100Y-166164000D03*
X164577100Y-166164000D03*
X167117100Y-166164000D03*
%TD*%
D12*
%TO.C,C17*%
X140725000Y-163650000D03*
X143225000Y-163650000D03*
%TD*%
%TO.C,C16*%
X156390000Y-155430000D03*
X158890000Y-155430000D03*
%TD*%
%TO.C,C15*%
X142000000Y-161475000D03*
X139500000Y-161475000D03*
%TD*%
D13*
%TO.C,SW1*%
X116950000Y-78400000D03*
X122450000Y-78400000D03*
X122450000Y-80900000D03*
X116950000Y-80900000D03*
X116950000Y-75900000D03*
X122450000Y-75900000D03*
%TD*%
%TO.C,SW2*%
X116950000Y-114400000D03*
X122450000Y-114400000D03*
X122450000Y-116900000D03*
X116950000Y-116900000D03*
X116950000Y-111900000D03*
X122450000Y-111900000D03*
%TD*%
%TO.C,SW3*%
X116950000Y-150400000D03*
X122450000Y-150400000D03*
X122450000Y-152900000D03*
X116950000Y-152900000D03*
X116950000Y-147900000D03*
X122450000Y-147900000D03*
%TD*%
%TO.C,SW4*%
X116950000Y-186400000D03*
X122450000Y-186400000D03*
X122450000Y-188900000D03*
X116950000Y-188900000D03*
X116950000Y-183900000D03*
X122450000Y-183900000D03*
%TD*%
D14*
%TO.C,J41*%
X107280000Y-188940000D03*
D15*
X102200000Y-181320000D03*
X102200000Y-191480000D03*
D14*
X107280000Y-186400000D03*
%TD*%
%TO.C,J31*%
X107280000Y-152940000D03*
D15*
X102200000Y-145320000D03*
X102200000Y-155480000D03*
D14*
X107280000Y-150400000D03*
%TD*%
%TO.C,J21*%
X107280000Y-116940000D03*
D15*
X102200000Y-109320000D03*
X102200000Y-119480000D03*
D14*
X107280000Y-114400000D03*
%TD*%
%TO.C,J11*%
X107280000Y-80940000D03*
D15*
X102200000Y-73320000D03*
X102200000Y-83480000D03*
D14*
X107280000Y-78400000D03*
%TD*%
D16*
%TO.C,R31*%
X146890000Y-124380000D03*
X149590000Y-124380000D03*
%TD*%
%TO.C,R30*%
X146890000Y-122120000D03*
X149590000Y-122120000D03*
%TD*%
%TO.C,R29*%
X146890000Y-119860000D03*
X149590000Y-119860000D03*
%TD*%
%TO.C,R19*%
X143885000Y-137716000D03*
X146585000Y-137716000D03*
%TD*%
D17*
%TO.C,C13*%
X175377200Y-139113000D03*
X180777200Y-139113000D03*
%TD*%
D12*
%TO.C,C12*%
X176827200Y-134464800D03*
X179327200Y-134464800D03*
%TD*%
D18*
%TO.C,U5*%
X137136200Y-115044000D03*
X137136200Y-114094000D03*
X137136200Y-113144000D03*
X134436200Y-113144000D03*
X134436200Y-115044000D03*
%TD*%
D12*
%TO.C,C11*%
X136909200Y-110969800D03*
X134409200Y-110969800D03*
%TD*%
%TO.C,C10*%
X134409200Y-117218200D03*
X136909200Y-117218200D03*
%TD*%
D19*
%TO.C,U4*%
X142259600Y-142243000D03*
X142259600Y-142893000D03*
X142259600Y-143543000D03*
X142259600Y-144193000D03*
X142259600Y-144843000D03*
X142259600Y-145493000D03*
X142259600Y-146143000D03*
X148159600Y-146143000D03*
X148159600Y-145493000D03*
X148159600Y-144843000D03*
X148159600Y-144193000D03*
X148159600Y-143543000D03*
X148159600Y-142893000D03*
X148159600Y-142243000D03*
%TD*%
%TO.C,U2*%
X129521500Y-122304000D03*
X129521500Y-122954000D03*
X129521500Y-123604000D03*
X129521500Y-124254000D03*
X129521500Y-124904000D03*
X129521500Y-125554000D03*
X129521500Y-126204000D03*
X135421500Y-126204000D03*
X135421500Y-125554000D03*
X135421500Y-124904000D03*
X135421500Y-124254000D03*
X135421500Y-123604000D03*
X135421500Y-122954000D03*
X135421500Y-122304000D03*
%TD*%
D20*
%TO.C,U1*%
X164750000Y-127075000D03*
X164750000Y-126425000D03*
X164750000Y-125775000D03*
X164750000Y-125125000D03*
X164750000Y-124475000D03*
X164750000Y-123825000D03*
X164750000Y-123175000D03*
X164750000Y-122525000D03*
X158850000Y-122525000D03*
X158850000Y-123175000D03*
X158850000Y-123825000D03*
X158850000Y-124475000D03*
X158850000Y-125125000D03*
X158850000Y-125775000D03*
X158850000Y-126425000D03*
X158850000Y-127075000D03*
%TD*%
D16*
%TO.C,R28*%
X160293400Y-142872200D03*
X162993400Y-142872200D03*
%TD*%
%TO.C,R27*%
X165678200Y-142872200D03*
X168378200Y-142872200D03*
%TD*%
%TO.C,R26*%
X160293400Y-145209000D03*
X162993400Y-145209000D03*
%TD*%
%TO.C,R25*%
X165678200Y-145209000D03*
X168378200Y-145209000D03*
%TD*%
%TO.C,R24*%
X160318800Y-147571200D03*
X163018800Y-147571200D03*
%TD*%
%TO.C,R23*%
X143885000Y-140002000D03*
X146585000Y-140002000D03*
%TD*%
%TO.C,R22*%
X177674600Y-158861500D03*
X174974600Y-158861500D03*
%TD*%
%TO.C,R21*%
X160293400Y-140510000D03*
X162993400Y-140510000D03*
%TD*%
%TO.C,R20*%
X165678200Y-140510000D03*
X168378200Y-140510000D03*
%TD*%
%TO.C,R18*%
X156530000Y-129950000D03*
X159230000Y-129950000D03*
%TD*%
%TO.C,R13*%
X118350000Y-71400000D03*
X121050000Y-71400000D03*
%TD*%
%TO.C,R12*%
X118350000Y-107400000D03*
X121050000Y-107400000D03*
%TD*%
%TO.C,R11*%
X118350000Y-143400000D03*
X121050000Y-143400000D03*
%TD*%
%TO.C,R10*%
X118350000Y-179400000D03*
X121050000Y-179400000D03*
%TD*%
%TO.C,R9*%
X142597200Y-126641600D03*
X139897200Y-126641600D03*
%TD*%
%TO.C,R8*%
X142597200Y-124381000D03*
X139897200Y-124381000D03*
%TD*%
%TO.C,R7*%
X142600000Y-122120000D03*
X139900000Y-122120000D03*
%TD*%
%TO.C,R6*%
X142597200Y-119859800D03*
X139897200Y-119859800D03*
%TD*%
%TO.C,R1*%
X159230000Y-132210000D03*
X156530000Y-132210000D03*
%TD*%
D21*
%TO.C,Q1*%
X177974600Y-163177000D03*
X177974600Y-161277000D03*
X174674600Y-162227000D03*
%TD*%
D11*
%TO.C,J5*%
X185730000Y-84030000D03*
X185730000Y-86570000D03*
X185730000Y-89110000D03*
X185730000Y-91650000D03*
X185730000Y-94190000D03*
X185730000Y-96730000D03*
X185730000Y-99270000D03*
X185730000Y-101810000D03*
X185730000Y-104350000D03*
X185730000Y-106890000D03*
X185730000Y-109430000D03*
X185730000Y-111970000D03*
X185730000Y-114510000D03*
X185730000Y-117050000D03*
X185730000Y-119590000D03*
X185730000Y-122130000D03*
X185730000Y-124670000D03*
X185730000Y-127210000D03*
X185730000Y-129750000D03*
X185730000Y-132290000D03*
X185730000Y-134830000D03*
X185730000Y-137370000D03*
X185730000Y-139910000D03*
X185730000Y-142450000D03*
X185730000Y-144990000D03*
X185730000Y-147530000D03*
X185730000Y-150070000D03*
X185730000Y-152610000D03*
X185730000Y-155150000D03*
X185730000Y-157690000D03*
X185730000Y-160230000D03*
X185730000Y-162770000D03*
X188270000Y-84030000D03*
X188270000Y-86570000D03*
X188270000Y-89110000D03*
X188270000Y-91650000D03*
X188270000Y-94190000D03*
X188270000Y-96730000D03*
X188270000Y-99270000D03*
X188270000Y-101810000D03*
X188270000Y-104350000D03*
X188270000Y-106890000D03*
X188270000Y-109430000D03*
X188270000Y-111970000D03*
X188270000Y-114510000D03*
X188270000Y-117050000D03*
X188270000Y-119590000D03*
X188270000Y-122130000D03*
X188270000Y-124670000D03*
X188270000Y-127210000D03*
X188270000Y-129750000D03*
X188270000Y-132290000D03*
X188270000Y-134830000D03*
X188270000Y-137370000D03*
X188270000Y-139910000D03*
X188270000Y-142450000D03*
X188270000Y-144990000D03*
X188270000Y-147530000D03*
X188270000Y-150070000D03*
X188270000Y-152610000D03*
X188270000Y-155150000D03*
X188270000Y-157690000D03*
X188270000Y-160230000D03*
X188270000Y-162770000D03*
%TD*%
D14*
%TO.C,J4*%
X107280000Y-170940000D03*
D15*
X102200000Y-163320000D03*
X102200000Y-173480000D03*
D14*
X107280000Y-168400000D03*
%TD*%
%TO.C,J3*%
X107280000Y-134940000D03*
D15*
X102200000Y-127320000D03*
X102200000Y-137480000D03*
D14*
X107280000Y-132400000D03*
%TD*%
%TO.C,J2*%
X107280000Y-98940000D03*
D15*
X102200000Y-91320000D03*
X102200000Y-101480000D03*
D14*
X107280000Y-96400000D03*
%TD*%
%TO.C,J1*%
X107280000Y-62940000D03*
D15*
X102200000Y-55320000D03*
X102200000Y-65480000D03*
D14*
X107280000Y-60400000D03*
%TD*%
D22*
%TO.C,C9*%
X170571500Y-115344000D03*
X170571500Y-112844000D03*
%TD*%
D23*
%TO.C,C8*%
X165872500Y-111394000D03*
X165872500Y-116794000D03*
%TD*%
%TO.C,C7*%
X158506500Y-116794000D03*
X158506500Y-111394000D03*
%TD*%
D22*
%TO.C,C6*%
X153871000Y-115344000D03*
X153871000Y-112844000D03*
%TD*%
D12*
%TO.C,C5*%
X133721500Y-128508500D03*
X131221500Y-128508500D03*
%TD*%
D22*
%TO.C,C4*%
X126800000Y-127750000D03*
X126800000Y-130250000D03*
%TD*%
D12*
%TO.C,C3*%
X123942500Y-125016000D03*
X121442500Y-125016000D03*
%TD*%
%TO.C,C2*%
X123942500Y-121523500D03*
X121442500Y-121523500D03*
%TD*%
D22*
%TO.C,C1*%
X126800000Y-118950000D03*
X126800000Y-116450000D03*
%TD*%
D10*
%TO.C,Y1*%
G36*
X154413173Y-152644670D02*
G01*
X153069670Y-153988173D01*
X152786827Y-153705330D01*
X154130330Y-152361827D01*
X154413173Y-152644670D01*
G37*
G36*
X153564645Y-151796142D02*
G01*
X152221142Y-153139645D01*
X151938299Y-152856802D01*
X153281802Y-151513299D01*
X153564645Y-151796142D01*
G37*
G36*
X155261701Y-153493198D02*
G01*
X153918198Y-154836701D01*
X153635355Y-154553858D01*
X154978858Y-153210355D01*
X155261701Y-153493198D01*
G37*
%TD*%
D24*
%TO.C,J6*%
X168900000Y-161100000D03*
D25*
X166360000Y-161100000D03*
X168900000Y-158560000D03*
X166360000Y-158560000D03*
X168900000Y-156020000D03*
X166360000Y-156020000D03*
%TD*%
M02*
